<?xml version="1.0" encoding="utf-8"?>
<!-- Generator: Adobe Illustrator 21.1.0, SVG Export Plug-In . SVG Version: 6.00 Build 0)  -->
<svg version="1.1" id="Capa_1" xmlns="http://www.w3.org/2000/svg" xmlns:xlink="http://www.w3.org/1999/xlink" x="0px" y="0px"
	 viewBox="0 0 100 100" style="enable-background:new 0 0 100 100;" xml:space="preserve">
<style type="text/css">
	.st0{fill:#9BC234;}
	.st1{fill:#96BA32;}
	.st2{fill:#D3B5B3;}
	.st3{fill:#D3AC54;}
	.st4{fill:#E5BD5C;}
	.st5{fill:#FCA94F;}
	.st6{fill:#FF9D20;}
	.st7{fill:#B26920;}
	.st8{fill:#B7773D;}
</style>
<rect class="st0" width="10" height="10"/>
<rect x="10" class="st1" width="10" height="10"/>
<rect x="80" class="st0" width="10" height="10"/>
<rect x="90" class="st1" width="10" height="10"/>
<rect y="10" class="st1" width="10" height="10"/>
<rect x="10" y="10" class="st0" width="10" height="10"/>
<rect x="80" y="10" class="st1" width="10" height="10"/>
<rect x="90" y="10" class="st0" width="10" height="10"/>
<rect y="20" class="st0" width="10" height="10"/>
<rect x="10" y="20" class="st1" width="10" height="10"/>
<g>
	<rect x="20" class="st2" width="10" height="10"/>
	<rect x="30" class="st3" width="10" height="10"/>
	<rect x="40" class="st4" width="10" height="10"/>
	<rect x="50" class="st3" width="10" height="10"/>
	<rect x="60" class="st4" width="10" height="10"/>
	<rect x="70" class="st2" width="10" height="10"/>
	<rect x="20" y="10" class="st2" width="10" height="10"/>
	<rect x="30" y="10" class="st2" width="10" height="10"/>
	<rect x="40" y="10" class="st3" width="10" height="10"/>
	<rect x="50" y="10" class="st4" width="10" height="10"/>
	<rect x="60" y="10" class="st2" width="10" height="10"/>
	<rect x="70" y="10" class="st2" width="10" height="10"/>
	<rect x="20" y="20" class="st0" width="10" height="10"/>
	<rect x="30" y="20" class="st2" width="10" height="10"/>
	<rect x="40" y="20" class="st2" width="10" height="10"/>
	<rect x="50" y="20" class="st2" width="10" height="10"/>
	<rect x="60" y="20" class="st2" width="10" height="10"/>
	<rect x="70" y="20" class="st1" width="10" height="10"/>
</g>
<rect x="80" y="20" class="st0" width="10" height="10"/>
<rect x="90" y="20" class="st1" width="10" height="10"/>
<rect y="30" class="st1" width="10" height="10"/>
<rect x="10" y="30" class="st0" width="10" height="10"/>
<rect x="20" y="30" class="st1" width="10" height="10"/>
<rect x="30" y="30" class="st0" width="10" height="10"/>
<rect x="40" y="30" class="st1" width="10" height="10"/>
<rect x="50" y="30" class="st0" width="10" height="10"/>
<rect x="60" y="30" class="st1" width="10" height="10"/>
<rect x="70" y="30" class="st0" width="10" height="10"/>
<rect x="80" y="30" class="st1" width="10" height="10"/>
<rect x="90" y="30" class="st0" width="10" height="10"/>
<rect y="40" class="st0" width="10" height="10"/>
<rect x="10" y="40" class="st1" width="10" height="10"/>
<rect x="20" y="40" class="st0" width="10" height="10"/>
<rect x="30" y="40" class="st1" width="10" height="10"/>
<rect x="40" y="40" class="st0" width="10" height="10"/>
<rect x="50" y="40" class="st1" width="10" height="10"/>
<rect x="60" y="40" class="st0" width="10" height="10"/>
<rect x="70" y="40" class="st1" width="10" height="10"/>
<rect x="80" y="40" class="st0" width="10" height="10"/>
<rect x="90" y="40" class="st1" width="10" height="10"/>
<rect y="50" class="st1" width="10" height="10"/>
<rect x="10" y="50" class="st0" width="10" height="10"/>
<rect x="20" y="50" class="st1" width="10" height="10"/>
<rect x="30" y="50" class="st0" width="10" height="10"/>
<rect x="40" y="50" class="st1" width="10" height="10"/>
<rect x="50" y="50" class="st0" width="10" height="10"/>
<rect x="60" y="50" class="st1" width="10" height="10"/>
<rect x="70" y="50" class="st0" width="10" height="10"/>
<rect x="80" y="50" class="st1" width="10" height="10"/>
<rect x="90" y="50" class="st0" width="10" height="10"/>
<rect y="60" class="st0" width="10" height="10"/>
<rect x="10" y="60" class="st1" width="10" height="10"/>
<rect x="20" y="60" class="st0" width="10" height="10"/>
<rect x="30" y="60" class="st1" width="10" height="10"/>
<rect x="40" y="60" class="st0" width="10" height="10"/>
<rect x="50" y="60" class="st1" width="10" height="10"/>
<rect x="60" y="60" class="st0" width="10" height="10"/>
<rect x="70" y="60" class="st1" width="10" height="10"/>
<rect x="80" y="60" class="st0" width="10" height="10"/>
<rect x="90" y="60" class="st1" width="10" height="10"/>
<rect y="70" class="st1" width="10" height="10"/>
<rect x="10" y="70" class="st0" width="10" height="10"/>
<rect x="20" y="70" class="st1" width="10" height="10"/>
<rect x="30" y="70" class="st0" width="10" height="10"/>
<rect x="40" y="70" class="st1" width="10" height="10"/>
<rect x="50" y="70" class="st0" width="10" height="10"/>
<rect x="60" y="70" class="st1" width="10" height="10"/>
<rect x="70" y="70" class="st0" width="10" height="10"/>
<rect x="80" y="70" class="st1" width="10" height="10"/>
<rect x="90" y="70" class="st0" width="10" height="10"/>
<rect y="80" class="st0" width="10" height="10"/>
<rect x="10" y="80" class="st1" width="10" height="10"/>
<rect x="20" y="80" class="st0" width="10" height="10"/>
<rect x="30" y="80" class="st1" width="10" height="10"/>
<rect x="40" y="80" class="st0" width="10" height="10"/>
<rect x="50" y="80" class="st1" width="10" height="10"/>
<rect x="60" y="80" class="st0" width="10" height="10"/>
<rect x="70" y="80" class="st1" width="10" height="10"/>
<rect x="80" y="80" class="st0" width="10" height="10"/>
<rect x="90" y="80" class="st1" width="10" height="10"/>
<rect y="90" class="st1" width="10" height="10"/>
<rect x="10" y="90" class="st0" width="10" height="10"/>
<rect x="20" y="90" class="st1" width="10" height="10"/>
<rect x="30" y="90" class="st0" width="10" height="10"/>
<rect x="40" y="90" class="st1" width="10" height="10"/>
<rect x="50" y="90" class="st0" width="10" height="10"/>
<rect x="60" y="90" class="st1" width="10" height="10"/>
<rect x="70" y="90" class="st0" width="10" height="10"/>
<rect x="80" y="90" class="st1" width="10" height="10"/>
<rect x="90" y="90" class="st0" width="10" height="10"/>
<g>
	<rect y="40" class="st5" width="100" height="20"/>
	<rect x="10" y="40" class="st6" width="10" height="10"/>
	<rect y="50" class="st6" width="10" height="10"/>
	<rect x="30" y="40" class="st6" width="10" height="10"/>
	<rect x="20" y="50" class="st6" width="10" height="10"/>
	<rect x="50" y="40" class="st6" width="10" height="10"/>
	<rect x="40" y="50" class="st6" width="10" height="10"/>
	<rect x="70" y="40" class="st6" width="10" height="10"/>
	<rect x="60" y="50" class="st6" width="10" height="10"/>
	<rect x="90" y="40" class="st6" width="10" height="10"/>
	<rect x="80" y="50" class="st6" width="10" height="10"/>
</g>
</svg>
