<?xml version="1.0" encoding="utf-8"?>
<!-- Generator: Adobe Illustrator 21.1.0, SVG Export Plug-In . SVG Version: 6.00 Build 0)  -->
<svg version="1.1" id="Capa_1" xmlns="http://www.w3.org/2000/svg" xmlns:xlink="http://www.w3.org/1999/xlink" x="0px" y="0px"
	 viewBox="0 0 100 100" style="enable-background:new 0 0 100 100;" xml:space="preserve">
<style type="text/css">
	.st0{fill:#9BC234;}
	.st1{fill:#96BA32;}
	.st2{fill:#D3B5B3;}
	.st3{fill:#D3AC54;}
	.st4{fill:#E5BD5C;}
	.st5{fill:#FCA94F;}
	.st6{fill:#FF9D20;}
	.st7{fill:#B26920;}
	.st8{fill:#B7773D;}
</style>
<g>
	<rect x="90" transform="matrix(-1.836970e-16 1 -1 -1.836970e-16 100 -90)" class="st2" width="10" height="10"/>
	<rect x="90" y="10" transform="matrix(-1.836970e-16 1 -1 -1.836970e-16 110 -80)" class="st3" width="10" height="10"/>
	<rect x="90" y="20" transform="matrix(-1.836970e-16 1 -1 -1.836970e-16 120 -70)" class="st4" width="10" height="10"/>
	<rect x="90" y="30" transform="matrix(-1.836970e-16 1 -1 -1.836970e-16 130 -60)" class="st3" width="10" height="10"/>
	<rect x="90" y="40" transform="matrix(-1.836970e-16 1 -1 -1.836970e-16 140 -50)" class="st4" width="10" height="10"/>
	<rect x="90" y="50" transform="matrix(-1.836970e-16 1 -1 -1.836970e-16 150 -40)" class="st3" width="10" height="10"/>
	<rect x="90" y="60" transform="matrix(-1.836970e-16 1 -1 -1.836970e-16 160 -30)" class="st4" width="10" height="10"/>
	<rect x="90" y="70" transform="matrix(-1.836970e-16 1 -1 -1.836970e-16 170 -20)" class="st3" width="10" height="10"/>
	<rect x="90" y="80" transform="matrix(-1.836970e-16 1 -1 -1.836970e-16 180 -10)" class="st4" width="10" height="10"/>
	<rect x="90" y="90" transform="matrix(-1.836970e-16 1 -1 -1.836970e-16 190 1.421085e-14)" class="st2" width="10" height="10"/>
	<rect x="80" transform="matrix(-1.836970e-16 1 -1 -1.836970e-16 90 -80)" class="st2" width="10" height="10"/>
	<rect x="80" y="10" transform="matrix(-1.836970e-16 1 -1 -1.836970e-16 100 -70)" class="st2" width="10" height="10"/>
	<rect x="80" y="20" transform="matrix(-1.836970e-16 1 -1 -1.836970e-16 110 -60)" class="st3" width="10" height="10"/>
	<rect x="80" y="30" transform="matrix(-1.836970e-16 1 -1 -1.836970e-16 120 -50)" class="st4" width="10" height="10"/>
	<rect x="80" y="40" transform="matrix(-1.836970e-16 1 -1 -1.836970e-16 130 -40)" class="st3" width="10" height="10"/>
	<rect x="80" y="50" transform="matrix(-1.836970e-16 1 -1 -1.836970e-16 140 -30)" class="st4" width="10" height="10"/>
	<rect x="80" y="60" transform="matrix(-1.836970e-16 1 -1 -1.836970e-16 150 -20)" class="st3" width="10" height="10"/>
	<rect x="80" y="70" transform="matrix(-1.836970e-16 1 -1 -1.836970e-16 160 -10)" class="st4" width="10" height="10"/>
	<rect x="80" y="80" transform="matrix(-1.836970e-16 1 -1 -1.836970e-16 170 1.421085e-14)" class="st2" width="10" height="10"/>
	<rect x="80" y="90" transform="matrix(-1.836970e-16 1 -1 -1.836970e-16 180 10)" class="st2" width="10" height="10"/>
	<rect x="70" transform="matrix(-1.836970e-16 1 -1 -1.836970e-16 80 -70)" class="st0" width="10" height="10"/>
	<rect x="70" y="10" transform="matrix(-1.836970e-16 1 -1 -1.836970e-16 90 -60)" class="st2" width="10" height="10"/>
	<rect x="70" y="20" transform="matrix(-1.836970e-16 1 -1 -1.836970e-16 100 -50)" class="st2" width="10" height="10"/>
	<rect x="70" y="30" transform="matrix(-1.836970e-16 1 -1 -1.836970e-16 110 -40)" class="st2" width="10" height="10"/>
	<rect x="70" y="40" transform="matrix(-1.836970e-16 1 -1 -1.836970e-16 120 -30)" class="st2" width="10" height="10"/>
	<rect x="70" y="50" transform="matrix(-1.836970e-16 1 -1 -1.836970e-16 130 -20)" class="st2" width="10" height="10"/>
	<rect x="70" y="60" transform="matrix(-1.836970e-16 1 -1 -1.836970e-16 140 -10)" class="st2" width="10" height="10"/>
	<rect x="70" y="70" transform="matrix(-1.836970e-16 1 -1 -1.836970e-16 150 1.421085e-14)" class="st2" width="10" height="10"/>
	<rect x="70" y="80" transform="matrix(-1.836970e-16 1 -1 -1.836970e-16 160 10)" class="st2" width="10" height="10"/>
	<rect x="70" y="90" transform="matrix(-1.836970e-16 1 -1 -1.836970e-16 170 20)" class="st1" width="10" height="10"/>
</g>
<rect x="90" transform="matrix(-1.836970e-16 1 -1 -1.836970e-16 100 -90)" class="st0" width="10" height="10"/>
<rect x="90" y="10" transform="matrix(-1.836970e-16 1 -1 -1.836970e-16 110 -80)" class="st1" width="10" height="10"/>
<rect x="90" y="20" transform="matrix(-1.836970e-16 1 -1 -1.836970e-16 120 -70)" class="st0" width="10" height="10"/>
<rect x="90" y="30" transform="matrix(-1.836970e-16 1 -1 -1.836970e-16 130 -60)" class="st1" width="10" height="10"/>
<rect x="90" y="40" transform="matrix(-1.836970e-16 1 -1 -1.836970e-16 140 -50)" class="st0" width="10" height="10"/>
<rect x="90" y="50" transform="matrix(-1.836970e-16 1 -1 -1.836970e-16 150 -40)" class="st1" width="10" height="10"/>
<rect x="90" y="60" transform="matrix(-1.836970e-16 1 -1 -1.836970e-16 160 -30)" class="st0" width="10" height="10"/>
<rect x="90" y="70" transform="matrix(-1.836970e-16 1 -1 -1.836970e-16 170 -20)" class="st1" width="10" height="10"/>
<rect x="90" y="80" transform="matrix(-1.836970e-16 1 -1 -1.836970e-16 180 -10)" class="st0" width="10" height="10"/>
<rect x="90" y="90" transform="matrix(-1.836970e-16 1 -1 -1.836970e-16 190 1.421085e-14)" class="st1" width="10" height="10"/>
<rect x="80" transform="matrix(-1.836970e-16 1 -1 -1.836970e-16 90 -80)" class="st1" width="10" height="10"/>
<rect x="80" y="10" transform="matrix(-1.836970e-16 1 -1 -1.836970e-16 100 -70)" class="st0" width="10" height="10"/>
<rect x="80" y="20" transform="matrix(-1.836970e-16 1 -1 -1.836970e-16 110 -60)" class="st1" width="10" height="10"/>
<rect x="80" y="30" transform="matrix(-1.836970e-16 1 -1 -1.836970e-16 120 -50)" class="st0" width="10" height="10"/>
<rect x="80" y="40" transform="matrix(-1.836970e-16 1 -1 -1.836970e-16 130 -40)" class="st1" width="10" height="10"/>
<rect x="80" y="50" transform="matrix(-1.836970e-16 1 -1 -1.836970e-16 140 -30)" class="st0" width="10" height="10"/>
<rect x="80" y="60" transform="matrix(-1.836970e-16 1 -1 -1.836970e-16 150 -20)" class="st1" width="10" height="10"/>
<rect x="80" y="70" transform="matrix(-1.836970e-16 1 -1 -1.836970e-16 160 -10)" class="st0" width="10" height="10"/>
<rect x="80" y="80" transform="matrix(-1.836970e-16 1 -1 -1.836970e-16 170 1.421085e-14)" class="st1" width="10" height="10"/>
<rect x="80" y="90" transform="matrix(-1.836970e-16 1 -1 -1.836970e-16 180 10)" class="st0" width="10" height="10"/>
<rect x="70" transform="matrix(-1.836970e-16 1 -1 -1.836970e-16 80 -70)" class="st0" width="10" height="10"/>
<rect x="70" y="10" transform="matrix(-1.836970e-16 1 -1 -1.836970e-16 90 -60)" class="st1" width="10" height="10"/>
<rect x="70" y="20" transform="matrix(-1.836970e-16 1 -1 -1.836970e-16 100 -50)" class="st0" width="10" height="10"/>
<rect x="70" y="30" transform="matrix(-1.836970e-16 1 -1 -1.836970e-16 110 -40)" class="st1" width="10" height="10"/>
<rect x="70" y="40" transform="matrix(-1.836970e-16 1 -1 -1.836970e-16 120 -30)" class="st0" width="10" height="10"/>
<rect x="70" y="50" transform="matrix(-1.836970e-16 1 -1 -1.836970e-16 130 -20)" class="st1" width="10" height="10"/>
<rect x="70" y="60" transform="matrix(-1.836970e-16 1 -1 -1.836970e-16 140 -10)" class="st0" width="10" height="10"/>
<rect x="70" y="70" transform="matrix(-1.836970e-16 1 -1 -1.836970e-16 150 1.421085e-14)" class="st1" width="10" height="10"/>
<rect x="70" y="80" transform="matrix(-1.836970e-16 1 -1 -1.836970e-16 160 10)" class="st0" width="10" height="10"/>
<rect x="70" y="90" transform="matrix(-1.836970e-16 1 -1 -1.836970e-16 170 20)" class="st1" width="10" height="10"/>
<rect x="60" transform="matrix(-1.836970e-16 1 -1 -1.836970e-16 70 -60)" class="st1" width="10" height="10"/>
<rect x="60" y="10" transform="matrix(-1.836970e-16 1 -1 -1.836970e-16 80 -50)" class="st0" width="10" height="10"/>
<rect x="60" y="20" transform="matrix(-1.836970e-16 1 -1 -1.836970e-16 90 -40)" class="st1" width="10" height="10"/>
<rect x="60" y="30" transform="matrix(-1.836970e-16 1 -1 -1.836970e-16 100 -30)" class="st0" width="10" height="10"/>
<rect x="60" y="40" transform="matrix(-1.836970e-16 1 -1 -1.836970e-16 110 -20)" class="st1" width="10" height="10"/>
<rect x="60" y="50" transform="matrix(-1.836970e-16 1 -1 -1.836970e-16 120 -10)" class="st0" width="10" height="10"/>
<rect x="60" y="60" transform="matrix(-1.836970e-16 1 -1 -1.836970e-16 130 1.421085e-14)" class="st1" width="10" height="10"/>
<rect x="60" y="70" transform="matrix(-1.836970e-16 1 -1 -1.836970e-16 140 10)" class="st0" width="10" height="10"/>
<rect x="60" y="80" transform="matrix(-1.836970e-16 1 -1 -1.836970e-16 150 20)" class="st1" width="10" height="10"/>
<rect x="60" y="90" transform="matrix(-1.836970e-16 1 -1 -1.836970e-16 160 30)" class="st0" width="10" height="10"/>
<rect x="50" transform="matrix(-1.836970e-16 1 -1 -1.836970e-16 60 -50)" class="st0" width="10" height="10"/>
<rect x="50" y="10" transform="matrix(-1.836970e-16 1 -1 -1.836970e-16 70 -40)" class="st1" width="10" height="10"/>
<rect x="50" y="20" transform="matrix(-1.836970e-16 1 -1 -1.836970e-16 80 -30)" class="st0" width="10" height="10"/>
<rect x="50" y="30" transform="matrix(-1.836970e-16 1 -1 -1.836970e-16 90 -20)" class="st1" width="10" height="10"/>
<rect x="50" y="40" transform="matrix(-1.836970e-16 1 -1 -1.836970e-16 100 -10)" class="st0" width="10" height="10"/>
<rect x="50" y="50" transform="matrix(-1.836970e-16 1 -1 -1.836970e-16 110 7.105427e-15)" class="st1" width="10" height="10"/>
<rect x="50" y="60" transform="matrix(-1.836970e-16 1 -1 -1.836970e-16 120 10)" class="st0" width="10" height="10"/>
<rect x="50" y="70" transform="matrix(-1.836970e-16 1 -1 -1.836970e-16 130 20)" class="st1" width="10" height="10"/>
<rect x="50" y="80" transform="matrix(-1.836970e-16 1 -1 -1.836970e-16 140 30)" class="st0" width="10" height="10"/>
<rect x="50" y="90" transform="matrix(-1.836970e-16 1 -1 -1.836970e-16 150 40)" class="st1" width="10" height="10"/>
<rect x="40" transform="matrix(-1.836970e-16 1 -1 -1.836970e-16 50 -40)" class="st1" width="10" height="10"/>
<rect x="40" y="10" transform="matrix(-1.836970e-16 1 -1 -1.836970e-16 60 -30)" class="st0" width="10" height="10"/>
<rect x="40" y="20" transform="matrix(-1.836970e-16 1 -1 -1.836970e-16 70 -20)" class="st1" width="10" height="10"/>
<rect x="40" y="30" transform="matrix(-1.836970e-16 1 -1 -1.836970e-16 80 -10)" class="st0" width="10" height="10"/>
<rect x="40" y="40" transform="matrix(-1.836970e-16 1 -1 -1.836970e-16 90 7.105427e-15)" class="st1" width="10" height="10"/>
<rect x="40" y="50" transform="matrix(-1.836970e-16 1 -1 -1.836970e-16 100 10)" class="st0" width="10" height="10"/>
<rect x="40" y="60" transform="matrix(-1.836970e-16 1 -1 -1.836970e-16 110 20)" class="st1" width="10" height="10"/>
<rect x="40" y="70" transform="matrix(-1.836970e-16 1 -1 -1.836970e-16 120 30)" class="st0" width="10" height="10"/>
<rect x="40" y="80" transform="matrix(-1.836970e-16 1 -1 -1.836970e-16 130 40)" class="st1" width="10" height="10"/>
<rect x="40" y="90" transform="matrix(-1.836970e-16 1 -1 -1.836970e-16 140 50)" class="st0" width="10" height="10"/>
<rect x="30" transform="matrix(-1.836970e-16 1 -1 -1.836970e-16 40 -30)" class="st0" width="10" height="10"/>
<rect x="30" y="10" transform="matrix(-1.836970e-16 1 -1 -1.836970e-16 50 -20)" class="st1" width="10" height="10"/>
<rect x="30" y="20" transform="matrix(-1.836970e-16 1 -1 -1.836970e-16 60 -10)" class="st0" width="10" height="10"/>
<rect x="30" y="30" transform="matrix(-1.836970e-16 1 -1 -1.836970e-16 70 7.105427e-15)" class="st1" width="10" height="10"/>
<rect x="30" y="40" transform="matrix(-1.836970e-16 1 -1 -1.836970e-16 80 10)" class="st0" width="10" height="10"/>
<rect x="30" y="50" transform="matrix(-1.836970e-16 1 -1 -1.836970e-16 90 20)" class="st1" width="10" height="10"/>
<rect x="30" y="60" transform="matrix(-1.836970e-16 1 -1 -1.836970e-16 100 30)" class="st0" width="10" height="10"/>
<rect x="30" y="70" transform="matrix(-1.836970e-16 1 -1 -1.836970e-16 110 40)" class="st1" width="10" height="10"/>
<rect x="30" y="80" transform="matrix(-1.836970e-16 1 -1 -1.836970e-16 120 50)" class="st0" width="10" height="10"/>
<rect x="30" y="90" transform="matrix(-1.836970e-16 1 -1 -1.836970e-16 130 60)" class="st1" width="10" height="10"/>
<rect x="20" transform="matrix(-1.836970e-16 1 -1 -1.836970e-16 30 -20)" class="st1" width="10" height="10"/>
<rect x="20" y="10" transform="matrix(-1.836970e-16 1 -1 -1.836970e-16 40 -10)" class="st0" width="10" height="10"/>
<rect x="20" y="20" transform="matrix(-1.836970e-16 1 -1 -1.836970e-16 50 3.552714e-15)" class="st1" width="10" height="10"/>
<rect x="20" y="30" transform="matrix(-1.836970e-16 1 -1 -1.836970e-16 60 10)" class="st0" width="10" height="10"/>
<rect x="20" y="40" transform="matrix(-1.836970e-16 1 -1 -1.836970e-16 70 20)" class="st1" width="10" height="10"/>
<rect x="20" y="50" transform="matrix(-1.836970e-16 1 -1 -1.836970e-16 80 30)" class="st0" width="10" height="10"/>
<rect x="20" y="60" transform="matrix(-1.836970e-16 1 -1 -1.836970e-16 90 40)" class="st1" width="10" height="10"/>
<rect x="20" y="70" transform="matrix(-1.836970e-16 1 -1 -1.836970e-16 100 50)" class="st0" width="10" height="10"/>
<rect x="20" y="80" transform="matrix(-1.836970e-16 1 -1 -1.836970e-16 110 60)" class="st1" width="10" height="10"/>
<rect x="20" y="90" transform="matrix(-1.836970e-16 1 -1 -1.836970e-16 120 70)" class="st0" width="10" height="10"/>
<rect x="10" transform="matrix(-1.836970e-16 1 -1 -1.836970e-16 20 -10)" class="st0" width="10" height="10"/>
<rect x="10" y="10" transform="matrix(-1.836970e-16 1 -1 -1.836970e-16 30 3.552714e-15)" class="st1" width="10" height="10"/>
<rect x="10" y="20" transform="matrix(-1.836970e-16 1 -1 -1.836970e-16 40 10)" class="st0" width="10" height="10"/>
<rect x="10" y="30" transform="matrix(-1.836970e-16 1 -1 -1.836970e-16 50 20)" class="st1" width="10" height="10"/>
<rect x="10" y="40" transform="matrix(-1.836970e-16 1 -1 -1.836970e-16 60 30)" class="st0" width="10" height="10"/>
<rect x="10" y="50" transform="matrix(-1.836970e-16 1 -1 -1.836970e-16 70 40)" class="st1" width="10" height="10"/>
<rect x="10" y="60" transform="matrix(-1.836970e-16 1 -1 -1.836970e-16 80 50)" class="st0" width="10" height="10"/>
<rect x="10" y="70" transform="matrix(-1.836970e-16 1 -1 -1.836970e-16 90 60)" class="st1" width="10" height="10"/>
<rect x="10" y="80" transform="matrix(-1.836970e-16 1 -1 -1.836970e-16 100 70)" class="st0" width="10" height="10"/>
<rect x="10" y="90" transform="matrix(-1.836970e-16 1 -1 -1.836970e-16 110 80)" class="st1" width="10" height="10"/>
<rect transform="matrix(-1.836970e-16 1 -1 -1.836970e-16 10 8.881784e-16)" class="st1" width="10" height="10"/>
<rect y="10" transform="matrix(-1.836970e-16 1 -1 -1.836970e-16 20 10)" class="st0" width="10" height="10"/>
<rect y="20" transform="matrix(-1.836970e-16 1 -1 -1.836970e-16 30 20)" class="st1" width="10" height="10"/>
<rect y="30" transform="matrix(-1.836970e-16 1 -1 -1.836970e-16 40 30)" class="st0" width="10" height="10"/>
<rect y="40" transform="matrix(-1.836970e-16 1 -1 -1.836970e-16 50 40)" class="st1" width="10" height="10"/>
<rect y="50" transform="matrix(-1.836970e-16 1 -1 -1.836970e-16 60 50)" class="st0" width="10" height="10"/>
<rect y="60" transform="matrix(-1.836970e-16 1 -1 -1.836970e-16 70 60)" class="st1" width="10" height="10"/>
<rect y="70" transform="matrix(-1.836970e-16 1 -1 -1.836970e-16 80 70)" class="st0" width="10" height="10"/>
<rect y="80" transform="matrix(-1.836970e-16 1 -1 -1.836970e-16 90 80)" class="st1" width="10" height="10"/>
<rect y="90" transform="matrix(-1.836970e-16 1 -1 -1.836970e-16 100 90)" class="st0" width="10" height="10"/>
<g>
	<rect x="20" class="st2" width="10" height="10"/>
	<rect x="30" class="st3" width="10" height="10"/>
	<rect x="40" class="st4" width="10" height="10"/>
	<rect x="50" class="st3" width="10" height="10"/>
	<rect x="60" class="st4" width="10" height="10"/>
	<rect x="70" class="st2" width="10" height="10"/>
	<rect x="20" y="10" class="st2" width="10" height="10"/>
	<rect x="30" y="10" class="st2" width="10" height="10"/>
	<rect x="40" y="10" class="st3" width="10" height="10"/>
	<rect x="50" y="10" class="st4" width="10" height="10"/>
	<rect x="60" y="10" class="st2" width="10" height="10"/>
	<rect x="70" y="10" class="st2" width="10" height="10"/>
	<rect x="20" y="20" class="st0" width="10" height="10"/>
	<rect x="30" y="20" class="st2" width="10" height="10"/>
	<rect x="40" y="20" class="st2" width="10" height="10"/>
	<rect x="50" y="20" class="st2" width="10" height="10"/>
	<rect x="60" y="20" class="st2" width="10" height="10"/>
	<rect x="70" y="20" class="st1" width="10" height="10"/>
</g>
<rect x="70" y="90" transform="matrix(-1 -1.224647e-16 1.224647e-16 -1 150 190)" class="st2" width="10" height="10"/>
<rect x="60" y="90" transform="matrix(-1 -1.224647e-16 1.224647e-16 -1 130 190)" class="st3" width="10" height="10"/>
<rect x="50" y="90" transform="matrix(-1 -1.224647e-16 1.224647e-16 -1 110 190)" class="st4" width="10" height="10"/>
<rect x="40" y="90" transform="matrix(-1 -1.224647e-16 1.224647e-16 -1 90 190)" class="st3" width="10" height="10"/>
<rect x="30" y="90" transform="matrix(-1 -1.224647e-16 1.224647e-16 -1 70 190)" class="st4" width="10" height="10"/>
<rect x="20" y="90" transform="matrix(-1 -1.224647e-16 1.224647e-16 -1 50 190)" class="st2" width="10" height="10"/>
<rect x="70" y="80" transform="matrix(-1 -1.224647e-16 1.224647e-16 -1 150 170)" class="st2" width="10" height="10"/>
<rect x="60" y="80" transform="matrix(-1 -1.224647e-16 1.224647e-16 -1 130 170)" class="st2" width="10" height="10"/>
<rect x="50" y="80" transform="matrix(-1 -1.224647e-16 1.224647e-16 -1 110 170)" class="st3" width="10" height="10"/>
<rect x="40" y="80" transform="matrix(-1 -1.224647e-16 1.224647e-16 -1 90 170)" class="st4" width="10" height="10"/>
<rect x="30" y="80" transform="matrix(-1 -1.224647e-16 1.224647e-16 -1 70 170)" class="st2" width="10" height="10"/>
<rect x="20" y="80" transform="matrix(-1 -1.224647e-16 1.224647e-16 -1 50 170)" class="st2" width="10" height="10"/>
<rect x="70" y="70" transform="matrix(-1 -1.224647e-16 1.224647e-16 -1 150 150)" class="st0" width="10" height="10"/>
<rect x="60" y="70" transform="matrix(-1 -1.224647e-16 1.224647e-16 -1 130 150)" class="st2" width="10" height="10"/>
<rect x="50" y="70" transform="matrix(-1 -1.224647e-16 1.224647e-16 -1 110 150)" class="st2" width="10" height="10"/>
<rect x="40" y="70" transform="matrix(-1 -1.224647e-16 1.224647e-16 -1 90 150)" class="st2" width="10" height="10"/>
<rect x="30" y="70" transform="matrix(-1 -1.224647e-16 1.224647e-16 -1 70 150)" class="st2" width="10" height="10"/>
<rect x="20" y="70" transform="matrix(-1 -1.224647e-16 1.224647e-16 -1 50 150)" class="st1" width="10" height="10"/>
</svg>
