<?xml version="1.0" encoding="utf-8"?>
<!-- Generator: Adobe Illustrator 21.1.0, SVG Export Plug-In . SVG Version: 6.00 Build 0)  -->
<svg version="1.1" id="Capa_1" xmlns="http://www.w3.org/2000/svg" xmlns:xlink="http://www.w3.org/1999/xlink" x="0px" y="0px"
	 viewBox="0 0 100 100" enable-background="new 0 0 100 100" xml:space="preserve">
<g>
	<g>
		<g>
			<rect x="0.005" y="0.036" fill="#05AD85" width="99.99" height="99.959"/>
			<g>
				<defs>
					<rect id="SVGID_33_" x="0.005" y="0.005" width="99.989" height="99.96"/>
				</defs>
				<clipPath id="SVGID_2_">
					<use xlink:href="#SVGID_33_"  overflow="visible"/>
				</clipPath>
				<g clip-path="url(#SVGID_2_)">
					<g>
						<g>
							<polygon fill="#06897F" points="80.277,0.935 78.185,-1.247 77.991,0.249 							"/>
							<polygon fill="#06897F" points="71.464,5.404 69.693,6.908 69.513,5.695 							"/>
							<polygon fill="#06897F" points="85.124,16.005 84.457,15.392 84.404,16.113 							"/>
							<polygon fill="#06897F" points="55.523,7.775 55.329,6.474 54.233,7.302 							"/>
						</g>
						<g>
							<polygon fill="#06897F" points="88.167,5.912 86.395,7.415 86.215,6.202 							"/>
							<polygon fill="#06897F" points="72.225,8.283 72.031,6.982 70.935,7.81 							"/>
						</g>
						<g>
							<polygon fill="#06897F" points="59.372,1.186 56.349,1.211 57.305,2.378 							"/>
							<polygon fill="#06897F" points="56.58,10.661 56.459,12.982 55.453,12.281 							"/>
							<polygon fill="#06897F" points="73.666,7.996 72.762,8.06 73.25,8.593 							"/>
							<polygon fill="#06897F" points="48.084,10.09 45.08,9.336 46.261,11.626 							"/>
							<polygon fill="#06897F" points="47.372,23.885 46.292,23.133 46.143,24.499 							"/>
						</g>
						<g>
							<polygon fill="#06897F" points="91.295,3.419 88.272,3.444 89.228,4.611 							"/>
							<polygon fill="#06897F" points="88.503,12.895 88.383,15.215 87.376,14.514 							"/>
							<polygon fill="#06897F" points="80.006,12.323 77.003,11.569 78.184,13.86 							"/>
							<polygon fill="#06897F" points="79.295,26.118 78.215,25.366 78.066,26.732 							"/>
						</g>
						<g>
							<polygon fill="#06897F" points="95.76,17.626 92.756,16.872 93.937,19.162 							"/>
							<polygon fill="#06897F" points="95.048,31.421 93.968,30.669 93.819,32.034 							"/>
						</g>
						<g>
							<polygon fill="#06897F" points="80.725,3.081 80.604,5.401 79.597,4.7 							"/>
							<polygon fill="#06897F" points="97.811,0.416 96.907,0.48 97.394,1.013 							"/>
							<polygon fill="#06897F" points="72.228,2.51 69.224,1.755 70.405,4.045 							"/>
							<polygon fill="#06897F" points="71.516,16.305 70.436,15.553 70.287,16.919 							"/>
						</g>
						<g>
							<polygon fill="#06897F" points="102.784,11.351 99.761,11.376 100.717,12.543 							"/>
							<polygon fill="#06897F" points="99.992,20.826 99.872,23.147 98.865,22.445 							"/>
							<polygon fill="#06897F" points="91.495,20.255 88.492,19.5 89.673,21.791 							"/>
							<polygon fill="#06897F" points="90.784,34.05 89.704,33.298 89.555,34.664 							"/>
						</g>
						<g>
							<polygon fill="#06897F" points="66.806,-0.252 63.784,-0.227 64.739,0.94 							"/>
							<polygon fill="#06897F" points="64.015,9.224 63.893,11.543 62.887,10.843 							"/>
							<polygon fill="#06897F" points="81.1,6.558 80.197,6.623 80.684,7.156 							"/>
							<polygon fill="#06897F" points="55.518,8.652 52.514,7.897 53.695,10.188 							"/>
							<polygon fill="#06897F" points="54.807,22.447 53.726,21.695 53.577,23.061 							"/>
						</g>
						<g>
							<polygon fill="#80D6CE" points="76.745,9.605 76.503,7.979 75.362,9.811 							"/>
							<polygon fill="#80D6CE" points="58.457,16.315 58.263,15.014 57.601,15.777 							"/>
							<polygon fill="#80D6CE" points="57.725,2.462 57.483,0.835 56.91,1.918 							"/>
							<polygon fill="#80D6CE" points="88.044,8.811 86.587,7.587 85.77,8.429 							"/>
						</g>
						<g>
							<polygon fill="#80D6CE" points="56.222,8.004 55.98,6.377 54.839,8.209 							"/>
							<polygon fill="#80D6CE" points="37.934,14.713 37.74,13.412 37.078,14.176 							"/>
							<polygon fill="#80D6CE" points="37.202,0.859 36.96,-0.767 36.387,0.316 							"/>
							<polygon fill="#80D6CE" points="67.521,7.21 66.064,5.985 65.248,6.827 							"/>
						</g>
						<g>
							<polygon fill="#80D6CE" points="98.492,21.663 98.249,20.036 97.109,21.868 							"/>
							<polygon fill="#80D6CE" points="80.203,28.372 80.01,27.071 79.347,27.834 							"/>
							<polygon fill="#80D6CE" points="79.471,14.519 79.23,12.893 78.656,13.975 							"/>
							<polygon fill="#80D6CE" points="91.323,4.775 90.17,3.73 90.347,4.923 							"/>
						</g>
						<g>
							<polygon fill="#80D6CE" points="68.664,10.66 69.787,9.458 67.642,9.706 							"/>
							<polygon fill="#80D6CE" points="52.025,0.531 52.923,-0.43 51.913,-0.473 							"/>
							<polygon fill="#80D6CE" points="84.947,9.123 85.393,7.441 84.044,7.52 							"/>
							<polygon fill="#80D6CE" points="76.321,19.004 76.372,17.102 75.204,16.987 							"/>
						</g>
						<g>
							<polygon fill="#80D6CE" points="81.441,16.073 82.563,14.871 80.419,15.119 							"/>
							<polygon fill="#80D6CE" points="64.802,5.944 65.7,4.983 64.69,4.941 							"/>
							<polygon fill="#80D6CE" points="97.724,14.536 98.17,12.854 96.821,12.933 							"/>
							<polygon fill="#80D6CE" points="89.098,24.417 89.149,22.515 87.982,22.401 							"/>
						</g>
						<g>
							<polygon fill="#80D6CE" points="95.581,23.942 96.703,22.741 94.559,22.989 							"/>
							<polygon fill="#80D6CE" points="78.942,13.815 79.84,12.853 78.83,12.81 							"/>
							<polygon fill="#80D6CE" points="89.33,4.616 90.452,3.414 89.247,3.639 							"/>
						</g>
						<g>
							<polygon fill="#80D6CE" points="84.984,20.894 85.881,19.932 84.871,19.89 							"/>
							<polygon fill="#80D6CE" points="95.371,11.695 96.493,10.494 95.289,10.719 							"/>
						</g>
						<g>
							<polygon fill="#80D6CE" points="56.735,31.051 57.857,29.848 55.713,30.096 							"/>
							<polygon fill="#80D6CE" points="40.095,20.922 40.993,19.961 39.984,19.918 							"/>
							<polygon fill="#80D6CE" points="50.483,11.724 51.605,10.521 50.402,10.747 							"/>
							<polygon fill="#80D6CE" points="65.49,14.927 65.589,13.374 64.766,14.256 							"/>
							<polygon fill="#80D6CE" points="73.018,29.513 73.463,27.831 72.114,27.911 							"/>
							<polygon fill="#80D6CE" points="64.392,39.394 64.443,37.493 63.275,37.378 							"/>
						</g>
					</g>
					<g>
						<g>
							<polygon fill="#06897F" points="88.672,56.076 88.099,53.109 87.125,54.26 							"/>
							<polygon fill="#06897F" points="78.845,55.052 76.541,55.355 77.047,54.238 							"/>
							<polygon fill="#06897F" points="84.569,71.365 84.341,70.488 83.906,71.064 							"/>
							<polygon fill="#06897F" points="77.865,46.595 78.061,43.506 76.023,45.082 							"/>
							<polygon fill="#06897F" points="64.165,48.4 64.709,47.202 63.338,47.304 							"/>
						</g>
						<g>
							<polygon fill="#06897F" points="92.601,64.535 90.297,64.838 90.804,63.721 							"/>
							<polygon fill="#06897F" points="98.325,80.848 98.098,79.971 97.662,80.547 							"/>
							<polygon fill="#06897F" points="91.621,56.078 91.818,52.989 89.779,54.565 							"/>
							<polygon fill="#06897F" points="77.922,57.884 78.465,56.685 77.095,56.787 							"/>
						</g>
						<g>
							<polygon fill="#06897F" points="70.974,44.951 68.421,43.334 68.591,44.832 							"/>
							<polygon fill="#06897F" points="63.487,51.398 62.127,53.282 61.662,52.148 							"/>
							<polygon fill="#06897F" points="79.288,58.424 78.494,57.988 78.614,58.7 							"/>
							<polygon fill="#06897F" points="56.659,46.312 54.545,44.049 54.295,46.613 							"/>
							<polygon fill="#06897F" points="48.577,57.515 48.078,56.298 47.211,57.364 							"/>
						</g>
						<g>
							<polygon fill="#06897F" points="96.582,64.138 94.029,62.518 94.198,64.018 							"/>
							<polygon fill="#06897F" points="89.096,70.584 87.735,72.468 87.27,71.334 							"/>
							<polygon fill="#06897F" points="82.267,65.497 80.153,63.235 79.903,65.799 							"/>
							<polygon fill="#06897F" points="74.185,76.7 73.686,75.484 72.82,76.55 							"/>
						</g>
						<g>
							<polygon fill="#06897F" points="99.453,83.581 98.093,85.465 97.628,84.33 							"/>
							<polygon fill="#06897F" points="92.625,78.494 90.511,76.231 90.26,78.796 							"/>
							<polygon fill="#06897F" points="84.542,89.697 84.043,88.48 83.177,89.546 							"/>
						</g>
						<g>
							<polygon fill="#06897F" points="95.371,51.675 92.819,50.057 92.987,51.556 							"/>
							<polygon fill="#06897F" points="87.885,58.122 86.525,60.005 86.059,58.871 							"/>
							<polygon fill="#06897F" points="81.057,53.034 78.942,50.772 78.692,53.337 							"/>
							<polygon fill="#06897F" points="72.974,64.238 72.475,63.021 71.609,64.087 							"/>
						</g>
						<g>
							<polygon fill="#06897F" points="101.93,77.031 99.377,75.412 99.547,76.911 							"/>
							<polygon fill="#06897F" points="94.444,83.478 93.084,85.361 92.619,84.227 							"/>
							<polygon fill="#06897F" points="87.616,78.39 85.502,76.128 85.251,78.692 							"/>
							<polygon fill="#06897F" points="79.534,89.594 79.034,88.377 78.168,89.443 							"/>
						</g>
						<g>
							<polygon fill="#06897F" points="78,47.774 75.447,46.156 75.617,47.655 							"/>
							<polygon fill="#06897F" points="70.513,54.221 69.153,56.105 68.688,54.971 							"/>
							<polygon fill="#06897F" points="86.314,61.246 85.52,60.811 85.64,61.523 							"/>
							<polygon fill="#06897F" points="63.685,49.134 61.572,46.872 61.321,49.436 							"/>
							<polygon fill="#06897F" points="55.603,60.338 55.104,59.121 54.237,60.187 							"/>
						</g>
						<g>
							<polygon fill="#80D6CE" points="81.002,61.445 81.68,59.948 79.728,60.868 							"/>
							<polygon fill="#80D6CE" points="61.997,57.165 62.54,55.967 61.57,56.249 							"/>
							<polygon fill="#80D6CE" points="68.898,45.13 69.577,43.632 68.508,44.231 							"/>
							<polygon fill="#80D6CE" points="84.142,43.37 83.74,41.867 83.241,42.965 							"/>
							<polygon fill="#80D6CE" points="95.939,54.786 95.823,53.049 94.57,53.555 							"/>
							<polygon fill="#80D6CE" points="90.925,66.904 90.365,65.086 89.222,65.351 							"/>
						</g>
						<g>
							<polygon fill="#80D6CE" points="64.629,48.971 65.308,47.474 63.356,48.394 							"/>
							<polygon fill="#80D6CE" points="45.624,44.692 46.167,43.493 45.197,43.776 							"/>
							<polygon fill="#80D6CE" points="52.526,32.656 53.204,31.159 52.135,31.758 							"/>
							<polygon fill="#80D6CE" points="67.768,30.896 67.367,29.393 66.869,30.491 							"/>
							<polygon fill="#80D6CE" points="79.566,42.312 79.45,40.575 78.197,41.082 							"/>
							<polygon fill="#80D6CE" points="74.552,54.43 73.992,52.612 72.849,52.877 							"/>
						</g>
						<g>
							<polygon fill="#80D6CE" points="92.73,83.366 93.409,81.869 91.456,82.789 							"/>
							<polygon fill="#80D6CE" points="73.725,79.086 74.268,77.889 73.298,78.171 							"/>
							<polygon fill="#80D6CE" points="80.626,67.051 81.305,65.554 80.236,66.153 							"/>
							<polygon fill="#80D6CE" points="95.869,65.292 95.468,63.788 94.97,64.886 							"/>
						</g>
						<g>
							<polygon fill="#80D6CE" points="73.641,57.949 75.236,57.548 73.3,56.594 							"/>
							<polygon fill="#80D6CE" points="65.157,40.418 66.433,40.097 65.607,39.514 							"/>
							<polygon fill="#80D6CE" points="78.874,38.323 80.469,37.922 79.335,37.458 							"/>
							<polygon fill="#80D6CE" points="89.743,49.151 90.67,47.9 89.5,48.194 							"/>
							<polygon fill="#80D6CE" points="88.154,65.487 89.441,64.315 88.265,63.651 							"/>
							<polygon fill="#80D6CE" points="75.547,69.111 76.621,67.541 75.703,66.812 							"/>
						</g>
						<g>
							<polygon fill="#80D6CE" points="81.438,69.425 83.033,69.024 81.097,68.07 							"/>
							<polygon fill="#80D6CE" points="72.954,51.894 74.23,51.573 73.405,50.989 							"/>
							<polygon fill="#80D6CE" points="86.672,49.799 88.267,49.397 87.133,48.934 							"/>
							<polygon fill="#80D6CE" points="97.541,60.627 98.467,59.376 97.297,59.67 							"/>
							<polygon fill="#80D6CE" points="95.952,76.963 97.239,75.791 96.063,75.126 							"/>
							<polygon fill="#80D6CE" points="83.344,80.587 84.418,79.017 83.5,78.287 							"/>
						</g>
						<g>
							<polygon fill="#80D6CE" points="89.048,83.704 90.643,83.303 88.706,82.349 							"/>
							<polygon fill="#80D6CE" points="80.564,66.173 81.84,65.852 81.014,65.268 							"/>
							<polygon fill="#80D6CE" points="94.281,64.077 95.876,63.676 94.743,63.212 							"/>
							<polygon fill="#80D6CE" points="90.954,94.866 92.028,93.295 91.11,92.566 							"/>
						</g>
						<g>
							<polygon fill="#80D6CE" points="90.282,92.927 91.877,92.527 89.941,91.572 							"/>
							<polygon fill="#80D6CE" points="81.798,75.396 83.074,75.076 82.249,74.492 							"/>
							<polygon fill="#80D6CE" points="95.516,73.301 97.111,72.9 95.977,72.436 							"/>
						</g>
						<g>
							<polygon fill="#80D6CE" points="52.556,68.612 54.151,68.21 52.214,67.256 							"/>
							<polygon fill="#80D6CE" points="44.072,51.08 45.348,50.76 44.522,50.176 							"/>
							<polygon fill="#80D6CE" points="57.789,48.985 59.384,48.584 58.25,48.12 							"/>
							<polygon fill="#80D6CE" points="68.659,59.813 69.584,58.562 68.415,58.857 							"/>
							<polygon fill="#80D6CE" points="67.069,76.15 68.356,74.977 67.18,74.313 							"/>
							<polygon fill="#80D6CE" points="54.462,79.774 55.536,78.203 54.618,77.474 							"/>
						</g>
					</g>
					<g>
						<g>
							<polygon fill="#06897F" points="37.981,10.81 37.753,9.934 37.317,10.509 							"/>
						</g>
						<g>
							<polygon fill="#06897F" points="46.013,3.98 43.709,4.283 44.216,3.166 							"/>
							<polygon fill="#06897F" points="51.737,20.293 51.509,19.416 51.073,19.992 							"/>
						</g>
						<g>
							<polygon fill="#06897F" points="49.994,3.582 47.441,1.964 47.61,3.463 							"/>
							<polygon fill="#06897F" points="42.507,10.029 41.147,11.913 40.681,10.778 							"/>
							<polygon fill="#06897F" points="58.308,17.055 57.514,16.619 57.634,17.331 							"/>
							<polygon fill="#06897F" points="35.679,4.942 33.565,2.679 33.314,5.244 							"/>
							<polygon fill="#06897F" points="27.597,16.145 27.097,14.929 26.232,15.995 							"/>
						</g>
						<g>
							<polygon fill="#06897F" points="60.351,16.579 57.798,14.961 57.968,16.46 							"/>
							<polygon fill="#06897F" points="52.865,23.027 51.505,24.91 51.039,23.775 							"/>
							<polygon fill="#06897F" points="68.665,30.052 67.871,29.616 67.991,30.328 							"/>
							<polygon fill="#06897F" points="46.037,17.939 43.923,15.677 43.672,18.241 							"/>
							<polygon fill="#06897F" points="37.954,29.142 37.454,27.925 36.588,28.992 							"/>
						</g>
						<g>
							<polygon fill="#06897F" points="57.097,4.592 56.303,4.156 56.423,4.869 							"/>
							<polygon fill="#06897F" points="26.386,3.684 25.887,2.467 25.021,3.533 							"/>
						</g>
						<g>
							<polygon fill="#06897F" points="55.342,16.476 52.789,14.858 52.958,16.357 							"/>
							<polygon fill="#06897F" points="47.856,22.923 46.496,24.806 46.03,23.671 							"/>
							<polygon fill="#06897F" points="63.656,29.948 62.862,29.512 62.982,30.225 							"/>
							<polygon fill="#06897F" points="41.027,17.836 38.914,15.573 38.663,18.137 							"/>
							<polygon fill="#06897F" points="32.945,29.039 32.446,27.822 31.58,28.888 							"/>
						</g>
						<g>
							<polygon fill="#06897F" points="39.725,0.692 38.932,0.256 39.052,0.968 							"/>
						</g>
						<g>
							<polygon fill="#80D6CE" points="34.414,0.89 35.093,-0.607 33.141,0.313 							"/>
							<polygon fill="#80D6CE" points="44.337,6.35 43.777,4.531 42.634,4.796 							"/>
						</g>
						<g>
							<polygon fill="#80D6CE" points="46.142,22.812 46.82,21.315 44.868,22.235 							"/>
							<polygon fill="#80D6CE" points="27.137,18.532 27.68,17.333 26.709,17.616 							"/>
							<polygon fill="#80D6CE" points="34.038,6.497 34.717,4.998 33.648,5.598 							"/>
							<polygon fill="#80D6CE" points="49.281,4.736 48.88,3.234 48.381,4.332 							"/>
							<polygon fill="#80D6CE" points="61.078,16.152 60.963,14.416 59.71,14.923 							"/>
							<polygon fill="#80D6CE" points="56.064,28.271 55.505,26.453 54.362,26.717 							"/>
						</g>
						<g>
							<polygon fill="#80D6CE" points="41.566,4.932 42.853,3.761 41.677,3.095 							"/>
							<polygon fill="#80D6CE" points="28.959,8.556 30.033,6.987 29.115,6.256 							"/>
						</g>
						<g>
							<polygon fill="#80D6CE" points="34.85,8.87 36.445,8.469 34.509,7.515 							"/>
							<polygon fill="#80D6CE" points="50.953,0.071 51.879,-1.178 50.709,-0.885 							"/>
							<polygon fill="#80D6CE" points="49.363,16.408 50.65,15.236 49.474,14.572 							"/>
							<polygon fill="#80D6CE" points="36.755,20.032 37.83,18.462 36.912,17.733 							"/>
						</g>
						<g>
							<polygon fill="#80D6CE" points="42.459,23.149 44.055,22.748 42.118,21.794 							"/>
							<polygon fill="#80D6CE" points="33.976,5.617 35.252,5.296 34.426,4.713 							"/>
							<polygon fill="#80D6CE" points="47.694,3.523 49.288,3.121 48.154,2.657 							"/>
							<polygon fill="#80D6CE" points="58.562,14.35 59.488,13.1 58.319,13.395 							"/>
							<polygon fill="#80D6CE" points="56.973,30.687 58.26,29.515 57.084,28.85 							"/>
							<polygon fill="#80D6CE" points="44.365,34.31 45.44,32.741 44.521,32.011 							"/>
						</g>
						<g>
							<polygon fill="#80D6CE" points="43.693,32.373 45.289,31.971 43.352,31.018 							"/>
							<polygon fill="#80D6CE" points="35.21,14.842 36.486,14.52 35.661,13.937 							"/>
							<polygon fill="#80D6CE" points="48.927,12.747 50.523,12.345 49.388,11.881 							"/>
							<polygon fill="#80D6CE" points="59.797,23.574 60.723,22.324 59.553,22.618 							"/>
							<polygon fill="#80D6CE" points="58.207,39.911 59.495,38.739 58.318,38.074 							"/>
							<polygon fill="#80D6CE" points="45.6,43.535 46.674,41.965 45.756,41.235 							"/>
						</g>
						<g>
							<polygon fill="#80D6CE" points="5.967,8.057 7.562,7.655 5.626,6.702 							"/>
							<polygon fill="#80D6CE" points="20.481,15.594 21.768,14.423 20.591,13.758 							"/>
							<polygon fill="#80D6CE" points="7.873,19.218 8.948,17.648 8.029,16.919 							"/>
						</g>
					</g>
					<g>
						<g>
							<g>
								<polygon fill="#06897F" points="16.722,1.62 16.149,-1.347 15.174,-0.195 								"/>
								<polygon fill="#06897F" points="6.894,0.597 4.591,0.899 5.097,-0.218 								"/>
								<polygon fill="#06897F" points="12.618,16.91 12.39,16.033 11.955,16.609 								"/>
							</g>
							<g>
								<polygon fill="#06897F" points="20.65,10.08 18.346,10.382 18.853,9.266 								"/>
								<polygon fill="#06897F" points="26.374,26.393 26.147,25.516 25.711,26.092 								"/>
								<polygon fill="#06897F" points="19.67,1.622 19.867,-1.467 17.828,0.11 								"/>
								<polygon fill="#06897F" points="5.972,3.428 6.515,2.23 5.144,2.331 								"/>
							</g>
							<g>
								<polygon fill="#06897F" points="7.338,3.968 6.544,3.533 6.664,4.244 								"/>
							</g>
							<g>
								<polygon fill="#06897F" points="24.631,9.682 22.078,8.064 22.247,9.563 								"/>
								<polygon fill="#06897F" points="17.145,16.129 15.785,18.012 15.319,16.878 								"/>
								<polygon fill="#06897F" points="32.945,23.154 32.151,22.718 32.271,23.43 								"/>
								<polygon fill="#06897F" points="10.316,11.042 8.203,8.779 7.951,11.343 								"/>
								<polygon fill="#06897F" points="2.234,22.245 1.735,21.028 0.869,22.094 								"/>
							</g>
							<g>
								<polygon fill="#06897F" points="34.989,22.679 32.436,21.061 32.605,22.559 								"/>
								<polygon fill="#06897F" points="27.502,29.126 26.142,31.009 25.676,29.875 								"/>
								<polygon fill="#06897F" points="43.302,36.15 42.508,35.716 42.629,36.427 								"/>
								<polygon fill="#06897F" points="20.674,24.038 18.56,21.776 18.309,24.34 								"/>
								<polygon fill="#06897F" points="12.592,35.242 12.092,34.025 11.226,35.091 								"/>
							</g>
							<g>
								<polygon fill="#06897F" points="15.934,3.666 14.574,5.55 14.109,4.416 								"/>
								<polygon fill="#06897F" points="31.734,10.692 30.94,10.256 31.06,10.968 								"/>
								<polygon fill="#06897F" points="1.023,9.783 0.524,8.566 -0.342,9.632 								"/>
							</g>
							<g>
								<polygon fill="#06897F" points="29.98,22.575 27.426,20.957 27.596,22.456 								"/>
								<polygon fill="#06897F" points="22.493,29.022 21.133,30.905 20.668,29.771 								"/>
								<polygon fill="#06897F" points="38.294,36.047 37.499,35.612 37.62,36.324 								"/>
								<polygon fill="#06897F" points="15.665,23.935 13.551,21.672 13.3,24.237 								"/>
								<polygon fill="#06897F" points="7.583,35.139 7.083,33.921 6.217,34.988 								"/>
							</g>
							<g>
								<polygon fill="#06897F" points="14.363,6.791 13.569,6.355 13.69,7.068 								"/>
							</g>
							<g>
								<polygon fill="#80D6CE" points="9.052,6.99 9.731,5.492 7.778,6.413 								"/>
								<polygon fill="#80D6CE" points="23.988,0.329 23.872,-1.406 22.62,-0.9 								"/>
								<polygon fill="#80D6CE" points="18.974,12.449 18.414,10.631 17.271,10.895 								"/>
							</g>
							<g>
								<polygon fill="#80D6CE" points="20.779,28.911 21.458,27.414 19.505,28.334 								"/>
								<polygon fill="#80D6CE" points="1.774,24.631 2.317,23.433 1.347,23.716 								"/>
								<polygon fill="#80D6CE" points="8.676,12.596 9.354,11.098 8.285,11.697 								"/>
								<polygon fill="#80D6CE" points="23.919,10.835 23.517,9.333 23.019,10.431 								"/>
								<polygon fill="#80D6CE" points="35.715,22.251 35.6,20.516 34.348,21.021 								"/>
								<polygon fill="#80D6CE" points="30.702,34.37 30.142,32.552 29,32.816 								"/>
							</g>
							<g>
								<polygon fill="#80D6CE" points="1.69,3.494 3.285,3.093 1.349,2.139 								"/>
								<polygon fill="#80D6CE" points="16.203,11.031 17.49,9.86 16.314,9.195 								"/>
								<polygon fill="#80D6CE" points="3.596,14.656 4.67,13.086 3.752,12.356 								"/>
							</g>
							<g>
								<polygon fill="#80D6CE" points="9.487,14.97 11.082,14.568 9.146,13.614 								"/>
								<polygon fill="#80D6CE" points="25.59,6.17 26.517,4.921 25.347,5.215 								"/>
								<polygon fill="#80D6CE" points="24,22.507 25.288,21.336 24.112,20.671 								"/>
								<polygon fill="#80D6CE" points="11.393,26.131 12.467,24.561 11.549,23.832 								"/>
							</g>
							<g>
								<polygon fill="#80D6CE" points="17.096,29.248 18.692,28.847 16.755,27.893 								"/>
								<polygon fill="#80D6CE" points="8.613,11.717 9.889,11.396 9.063,10.812 								"/>
								<polygon fill="#80D6CE" points="22.331,9.622 23.925,9.221 22.791,8.757 								"/>
								<polygon fill="#80D6CE" points="33.2,20.449 34.125,19.2 32.956,19.494 								"/>
								<polygon fill="#80D6CE" points="31.61,36.786 32.897,35.615 31.722,34.95 								"/>
								<polygon fill="#80D6CE" points="19.002,40.41 20.077,38.84 19.159,38.11 								"/>
							</g>
							<g>
								<polygon fill="#80D6CE" points="18.331,38.472 19.926,38.071 17.99,37.117 								"/>
								<polygon fill="#80D6CE" points="9.848,20.941 11.123,20.62 10.298,20.036 								"/>
								<polygon fill="#80D6CE" points="23.565,18.846 25.16,18.444 24.025,17.981 								"/>
								<polygon fill="#80D6CE" points="34.434,29.674 35.36,28.423 34.191,28.718 								"/>
								<polygon fill="#80D6CE" points="32.844,46.01 34.133,44.838 32.956,44.174 								"/>
								<polygon fill="#80D6CE" points="20.237,49.634 21.311,48.064 20.393,47.335 								"/>
							</g>
						</g>
						<g>
							<g>
								<g>
									<polygon fill="#06897F" points="1.072,46.168 0.499,43.2 -0.477,44.352 									"/>
								</g>
								<g>
									<polygon fill="#06897F" points="5,54.626 2.696,54.929 3.202,53.812 									"/>
									<polygon fill="#06897F" points="10.724,70.939 10.496,70.063 10.061,70.638 									"/>
									<polygon fill="#06897F" points="4.02,46.17 4.217,43.08 2.178,44.657 									"/>
								</g>
								<g>
									<polygon fill="#06897F" points="8.981,54.229 6.427,52.61 6.598,54.109 									"/>
									<polygon fill="#06897F" points="1.494,60.676 0.134,62.56 -0.331,61.425 									"/>
									<polygon fill="#06897F" points="17.295,67.701 16.5,67.265 16.62,67.977 									"/>
								</g>
								<g>
									<polygon fill="#06897F" points="19.338,67.225 16.786,65.608 16.955,67.106 									"/>
									<polygon fill="#06897F" points="11.852,73.673 10.492,75.556 10.027,74.421 									"/>
									<polygon fill="#06897F" points="27.652,80.698 26.858,80.262 26.979,80.974 									"/>
									<polygon fill="#06897F" points="5.024,68.586 2.91,66.322 2.659,68.887 									"/>
								</g>
								<g>
									<polygon fill="#06897F" points="7.77,41.767 5.217,40.148 5.387,41.647 									"/>
									<polygon fill="#06897F" points="0.284,48.213 -1.076,50.097 -1.542,48.963 									"/>
									<polygon fill="#06897F" points="16.084,55.238 15.29,54.803 15.41,55.515 									"/>
								</g>
								<g>
									<polygon fill="#06897F" points="14.33,67.122 11.777,65.504 11.946,67.002 									"/>
									<polygon fill="#06897F" points="6.843,73.569 5.483,75.453 5.018,74.318 									"/>
									<polygon fill="#06897F" points="22.644,80.594 21.85,80.159 21.97,80.87 									"/>
									<polygon fill="#06897F" points="0.015,68.481 -2.099,66.219 -2.35,68.783 									"/>
								</g>
								<g>
									<polygon fill="#80D6CE" points="8.338,44.877 8.222,43.141 6.97,43.646 									"/>
									<polygon fill="#80D6CE" points="3.324,56.995 2.764,55.177 1.621,55.442 									"/>
								</g>
								<g>
									<polygon fill="#80D6CE" points="5.129,73.457 5.807,71.96 3.855,72.881 									"/>
									<polygon fill="#80D6CE" points="8.268,55.383 7.866,53.879 7.368,54.978 									"/>
									<polygon fill="#80D6CE" points="20.066,66.798 19.95,65.062 18.697,65.568 									"/>
									<polygon fill="#80D6CE" points="15.052,78.917 14.492,77.099 13.349,77.363 									"/>
								</g>
								<g>
									<polygon fill="#80D6CE" points="2.142,39.242 3.069,37.992 1.899,38.286 									"/>
									<polygon fill="#80D6CE" points="0.552,55.578 1.841,54.407 0.664,53.742 									"/>
								</g>
								<g>
									<polygon fill="#80D6CE" points="-0.93,39.889 0.666,39.489 -0.468,39.025 									"/>
									<polygon fill="#80D6CE" points="9.939,50.718 10.866,49.467 9.696,49.761 									"/>
									<polygon fill="#80D6CE" points="8.35,67.054 9.637,65.882 8.461,65.218 									"/>
								</g>
								<g>
									<polygon fill="#80D6CE" points="1.447,73.795 3.042,73.394 1.105,72.44 									"/>
									<polygon fill="#80D6CE" points="6.68,54.169 8.276,53.768 7.141,53.304 									"/>
									<polygon fill="#80D6CE" points="17.549,64.997 18.476,63.746 17.306,64.041 									"/>
									<polygon fill="#80D6CE" points="15.96,81.333 17.247,80.161 16.071,79.497 									"/>
									<polygon fill="#80D6CE" points="3.352,84.957 4.427,83.387 3.508,82.658 									"/>
								</g>
								<g>
									<polygon fill="#80D6CE" points="2.681,83.019 4.276,82.618 2.34,81.664 									"/>
									<polygon fill="#80D6CE" points="7.915,63.393 9.51,62.991 8.376,62.527 									"/>
									<polygon fill="#80D6CE" points="18.784,74.22 19.71,72.97 18.541,73.265 									"/>
									<polygon fill="#80D6CE" points="17.194,90.557 18.482,89.385 17.305,88.721 									"/>
									<polygon fill="#80D6CE" points="4.587,94.181 5.661,92.611 4.743,91.881 									"/>
								</g>
							</g>
							<g>
								<g>
									<polygon fill="#06897F" points="21.961,35.871 19.87,33.689 19.676,35.185 									"/>
									<polygon fill="#06897F" points="13.15,40.34 11.378,41.843 11.198,40.63 									"/>
									<polygon fill="#06897F" points="26.809,50.941 26.142,50.328 26.089,51.048 									"/>
									<polygon fill="#06897F" points="7.737,33.766 6.226,31.064 5.369,33.494 									"/>
								</g>
								<g>
									<polygon fill="#06897F" points="29.852,40.848 28.08,42.351 27.9,41.138 									"/>
									<polygon fill="#06897F" points="43.511,51.449 42.844,50.836 42.791,51.555 									"/>
									<polygon fill="#06897F" points="24.44,34.274 22.929,31.572 22.072,34.002 									"/>
									<polygon fill="#06897F" points="13.91,43.219 13.717,41.918 12.621,42.745 									"/>
								</g>
								<g>
									<polygon fill="#06897F" points="1.057,36.122 -1.966,36.147 -1.01,37.314 									"/>
									<polygon fill="#06897F" points="15.351,42.932 14.448,42.996 14.935,43.529 									"/>
								</g>
								<g>
									<polygon fill="#06897F" points="32.98,38.355 29.957,38.38 30.913,39.547 									"/>
									<polygon fill="#06897F" points="30.189,47.83 30.068,50.15 29.061,49.449 									"/>
									<polygon fill="#06897F" points="47.274,45.165 46.371,45.229 46.859,45.762 									"/>
									<polygon fill="#06897F" points="21.692,47.259 18.688,46.504 19.869,48.795 									"/>
									<polygon fill="#06897F" points="20.98,61.054 19.901,60.302 19.751,61.668 									"/>
								</g>
								<g>
									<polygon fill="#06897F" points="48.733,43.658 45.711,43.682 46.667,44.85 									"/>
									<polygon fill="#06897F" points="45.942,53.133 45.821,55.453 44.814,54.753 									"/>
									<polygon fill="#06897F" points="63.027,50.467 62.124,50.533 62.611,51.065 									"/>
									<polygon fill="#06897F" points="37.445,52.562 34.441,51.807 35.622,54.098 									"/>
									<polygon fill="#06897F" points="36.734,66.357 35.654,65.605 35.505,66.97 									"/>
								</g>
								<g>
									<polygon fill="#06897F" points="25.202,28.542 22.179,28.566 23.134,29.733 									"/>
									<polygon fill="#06897F" points="22.41,38.017 22.289,40.337 21.282,39.636 									"/>
									<polygon fill="#06897F" points="39.496,35.351 38.592,35.416 39.08,35.949 									"/>
									<polygon fill="#06897F" points="13.913,37.446 10.909,36.691 12.09,38.981 									"/>
									<polygon fill="#06897F" points="13.202,51.241 12.122,50.489 11.973,51.854 									"/>
								</g>
								<g>
									<polygon fill="#06897F" points="44.47,46.286 41.446,46.312 42.402,47.479 									"/>
									<polygon fill="#06897F" points="41.678,55.762 41.557,58.082 40.55,57.381 									"/>
									<polygon fill="#06897F" points="58.763,53.097 57.86,53.161 58.347,53.694 									"/>
									<polygon fill="#06897F" points="33.181,55.19 30.177,54.436 31.358,56.726 									"/>
									<polygon fill="#06897F" points="32.469,68.986 31.389,68.234 31.24,69.599 									"/>
								</g>
								<g>
									<polygon fill="#06897F" points="8.491,34.684 5.468,34.708 6.424,35.875 									"/>
									<polygon fill="#06897F" points="5.7,44.159 5.579,46.48 4.572,45.778 									"/>
									<polygon fill="#06897F" points="22.786,41.494 21.882,41.558 22.369,42.091 									"/>
								</g>
								<g>
									<polygon fill="#80D6CE" points="18.43,44.541 18.188,42.915 17.047,44.747 									"/>
									<polygon fill="#80D6CE" points="0.141,51.25 -0.052,49.95 -0.714,50.713 									"/>
									<polygon fill="#80D6CE" points="11.261,27.653 10.108,26.608 10.286,27.801 									"/>
									<polygon fill="#80D6CE" points="27.366,30.847 26.327,29.451 25.549,30.555 									"/>
									<polygon fill="#80D6CE" points="29.729,43.746 28.272,42.523 27.455,43.365 									"/>
								</g>
								<g>
									<polygon fill="#80D6CE" points="6.843,29.246 5.804,27.849 5.026,28.954 									"/>
									<polygon fill="#80D6CE" points="9.206,42.145 7.749,40.921 6.932,41.763 									"/>
								</g>
								<g>
									<polygon fill="#80D6CE" points="40.177,56.599 39.935,54.972 38.794,56.805 									"/>
									<polygon fill="#80D6CE" points="21.888,63.308 21.695,62.007 21.033,62.77 									"/>
									<polygon fill="#80D6CE" points="21.156,49.455 20.915,47.828 20.341,48.911 									"/>
									<polygon fill="#80D6CE" points="33.008,39.711 31.855,38.666 32.032,39.859 									"/>
									<polygon fill="#80D6CE" points="49.112,42.905 48.073,41.508 47.295,42.612 									"/>
									<polygon fill="#80D6CE" points="51.476,55.804 50.019,54.581 49.202,55.423 									"/>
								</g>
								<g>
									<polygon fill="#80D6CE" points="10.349,45.595 11.472,44.394 9.328,44.642 									"/>
									<polygon fill="#80D6CE" points="4.098,26.269 5.22,25.067 4.016,25.292 									"/>
									<polygon fill="#80D6CE" points="19.104,29.472 19.204,27.919 18.381,28.801 									"/>
									<polygon fill="#80D6CE" points="26.632,44.059 27.078,42.377 25.729,42.456 									"/>
									<polygon fill="#80D6CE" points="18.006,53.939 18.057,52.038 16.89,51.923 									"/>
								</g>
								<g>
									<polygon fill="#80D6CE" points="23.126,51.009 24.248,49.806 22.104,50.055 									"/>
									<polygon fill="#80D6CE" points="6.487,40.88 7.385,39.919 6.375,39.876 									"/>
									<polygon fill="#80D6CE" points="16.875,31.682 17.997,30.48 16.793,30.706 									"/>
									<polygon fill="#80D6CE" points="31.881,34.885 31.981,33.332 31.158,34.214 									"/>
									<polygon fill="#80D6CE" points="39.409,49.471 39.855,47.789 38.506,47.869 									"/>
									<polygon fill="#80D6CE" points="30.784,59.353 30.834,57.451 29.666,57.336 									"/>
								</g>
								<g>
									<polygon fill="#80D6CE" points="37.266,58.879 38.389,57.676 36.245,57.925 									"/>
									<polygon fill="#80D6CE" points="20.627,48.75 21.525,47.789 20.515,47.746 									"/>
									<polygon fill="#80D6CE" points="31.015,39.552 32.137,38.35 30.933,38.575 									"/>
									<polygon fill="#80D6CE" points="46.021,42.755 46.121,41.203 45.298,42.084 									"/>
									<polygon fill="#80D6CE" points="53.549,57.342 53.995,55.66 52.646,55.739 									"/>
									<polygon fill="#80D6CE" points="44.923,67.223 44.974,65.32 43.807,65.206 									"/>
								</g>
								<g>
									<polygon fill="#80D6CE" points="43.308,65.958 44.43,64.757 42.286,65.004 									"/>
									<polygon fill="#80D6CE" points="26.669,55.83 27.567,54.868 26.557,54.826 									"/>
									<polygon fill="#80D6CE" points="37.057,46.631 38.179,45.43 36.975,45.655 									"/>
									<polygon fill="#80D6CE" points="52.063,49.835 52.162,48.282 51.339,49.164 									"/>
									<polygon fill="#80D6CE" points="59.591,64.421 60.036,62.739 58.688,62.818 									"/>
									<polygon fill="#80D6CE" points="50.965,74.302 51.016,72.4 49.849,72.286 									"/>
								</g>
								<g>
									<polygon fill="#80D6CE" points="7.174,49.863 7.275,48.31 6.452,49.191 									"/>
									<polygon fill="#80D6CE" points="14.703,64.449 15.149,62.767 13.8,62.846 									"/>
									<polygon fill="#80D6CE" points="6.077,74.33 6.128,72.429 4.96,72.314 									"/>
								</g>
							</g>
						</g>
					</g>
				</g>
				<g clip-path="url(#SVGID_2_)">
					<g>
						<g>
							<polygon fill="#06897F" points="21.309,59.282 18.506,60.412 19.822,61.148 							"/>
							<polygon fill="#06897F" points="22.18,69.123 22.917,71.326 21.724,71.042 							"/>
							<polygon fill="#06897F" points="37.105,60.391 36.288,60.782 36.937,61.1 							"/>
							<polygon fill="#06897F" points="14.063,71.699 10.992,72.095 12.929,73.795 							"/>
							<polygon fill="#06897F" points="18.451,84.797 17.171,84.493 17.532,85.818 							"/>
						</g>
						<g>
							<polygon fill="#06897F" points="28.865,53.812 29.602,56.016 28.409,55.732 							"/>
							<polygon fill="#06897F" points="43.79,45.081 42.973,45.472 43.622,45.79 							"/>
							<polygon fill="#06897F" points="20.749,56.389 17.678,56.785 19.614,58.485 							"/>
							<polygon fill="#06897F" points="25.137,69.487 23.857,69.183 24.217,70.508 							"/>
						</g>
						<g>
							<polygon fill="#06897F" points="13.765,78.774 12.663,81.588 14.103,81.136 							"/>
							<polygon fill="#06897F" points="21.524,84.89 23.634,85.865 22.609,86.539 							"/>
							<polygon fill="#06897F" points="25.406,68.044 25.13,68.906 25.806,68.652 							"/>
							<polygon fill="#06897F" points="17.833,92.561 16.015,95.069 18.58,94.825 							"/>
							<polygon fill="#06897F" points="30.376,98.354 29.277,99.077 30.489,99.723 							"/>
						</g>
						<g>
							<polygon fill="#06897F" points="27.715,49.982 26.613,52.796 28.053,52.344 							"/>
							<polygon fill="#06897F" points="35.475,56.098 37.584,57.073 36.559,57.746 							"/>
							<polygon fill="#06897F" points="39.356,39.252 39.08,40.114 39.756,39.86 							"/>
							<polygon fill="#06897F" points="31.782,63.77 29.965,66.276 32.531,66.033 							"/>
							<polygon fill="#06897F" points="44.326,69.562 43.226,70.285 44.439,70.931 							"/>
						</g>
						<g>
							<polygon fill="#06897F" points="38.499,37.337 37.398,40.151 38.838,39.699 							"/>
							<polygon fill="#06897F" points="46.259,43.453 48.368,44.428 47.343,45.102 							"/>
							<polygon fill="#06897F" points="50.14,26.607 49.864,27.469 50.541,27.215 							"/>
							<polygon fill="#06897F" points="42.567,51.124 40.749,53.631 43.315,53.388 							"/>
							<polygon fill="#06897F" points="55.111,56.917 54.011,57.64 55.223,58.286 							"/>
						</g>
						<g>
							<polygon fill="#06897F" points="15.709,53.549 14.608,56.364 16.047,55.911 							"/>
							<polygon fill="#06897F" points="23.469,59.665 25.578,60.641 24.553,61.314 							"/>
							<polygon fill="#06897F" points="27.351,42.819 27.074,43.682 27.75,43.427 							"/>
							<polygon fill="#06897F" points="19.777,67.337 17.959,69.844 20.524,69.6 							"/>
							<polygon fill="#06897F" points="32.321,73.13 31.221,73.852 32.433,74.498 							"/>
						</g>
						<g>
							<polygon fill="#06897F" points="39.354,42.272 38.252,45.086 39.692,44.634 							"/>
							<polygon fill="#06897F" points="47.113,48.388 49.223,49.363 48.197,50.036 							"/>
							<polygon fill="#06897F" points="50.994,31.542 50.719,32.404 51.395,32.15 							"/>
							<polygon fill="#06897F" points="43.421,56.06 41.603,58.566 44.169,58.323 							"/>
							<polygon fill="#06897F" points="55.965,61.852 54.866,62.575 56.078,63.221 							"/>
						</g>
						<g>
							<polygon fill="#06897F" points="15.195,71.341 14.094,74.155 15.533,73.702 							"/>
							<polygon fill="#06897F" points="22.955,77.456 25.064,78.432 24.039,79.105 							"/>
							<polygon fill="#06897F" points="26.837,60.61 26.56,61.472 27.237,61.219 							"/>
							<polygon fill="#06897F" points="19.263,85.128 17.445,87.634 20.011,87.392 							"/>
							<polygon fill="#06897F" points="31.807,90.921 30.707,91.644 31.919,92.29 							"/>
						</g>
						<g>
							<polygon fill="#80D6CE" points="28.045,65.785 26.445,65.405 27.722,67.146 							"/>
							<polygon fill="#80D6CE" points="27.471,85.252 26.191,84.948 26.654,85.846 							"/>
							<polygon fill="#80D6CE" points="14.337,80.777 12.736,80.397 13.528,81.331 							"/>
							<polygon fill="#80D6CE" points="9.698,66.155 8.299,66.836 9.472,67.115 							"/>
							<polygon fill="#80D6CE" points="18.655,52.399 16.972,52.843 17.708,53.976 							"/>
							<polygon fill="#80D6CE" points="31.511,55.005 29.834,55.902 30.311,56.973 							"/>
						</g>
						<g>
							<polygon fill="#80D6CE" points="18.923,84.234 17.323,83.853 18.599,85.593 							"/>
							<polygon fill="#80D6CE" points="5.213,99.225 3.614,98.844 4.406,99.779 							"/>
							<polygon fill="#80D6CE" points="0.576,84.603 -0.824,85.284 0.35,85.563 							"/>
							<polygon fill="#80D6CE" points="9.532,70.847 7.85,71.292 8.586,72.425 							"/>
							<polygon fill="#80D6CE" points="22.39,73.453 20.711,74.35 21.189,75.421 							"/>
						</g>
						<g>
							<polygon fill="#80D6CE" points="47.331,50.092 45.732,49.711 47.008,51.452 							"/>
							<polygon fill="#80D6CE" points="46.757,69.559 45.477,69.254 45.939,70.153 							"/>
							<polygon fill="#80D6CE" points="33.622,65.084 32.022,64.703 32.814,65.638 							"/>
							<polygon fill="#80D6CE" points="28.984,50.461 27.585,51.142 28.758,51.421 							"/>
							<polygon fill="#80D6CE" points="37.941,36.706 36.259,37.15 36.994,38.283 							"/>
							<polygon fill="#80D6CE" points="50.798,39.312 49.119,40.208 49.597,41.28 							"/>
						</g>
						<g>
							<polygon fill="#80D6CE" points="26.019,73.676 25.32,72.187 24.753,74.269 							"/>
							<polygon fill="#80D6CE" points="10.423,85.348 9.865,84.157 9.45,85.078 							"/>
							<polygon fill="#80D6CE" points="5.748,72.286 5.049,70.798 4.81,72 							"/>
							<polygon fill="#80D6CE" points="14.305,59.553 12.901,58.883 13.413,59.975 							"/>
							<polygon fill="#80D6CE" points="30.649,57.995 29.253,56.955 28.825,58.236 							"/>
							<polygon fill="#80D6CE" points="36.614,69.675 34.868,68.92 34.326,69.961 							"/>
						</g>
						<g>
							<polygon fill="#80D6CE" points="35.798,63.834 35.099,62.345 34.532,64.428 							"/>
							<polygon fill="#80D6CE" points="20.203,75.506 19.645,74.315 19.23,75.236 							"/>
							<polygon fill="#80D6CE" points="15.527,62.444 14.829,60.956 14.59,62.158 							"/>
							<polygon fill="#80D6CE" points="24.084,49.712 22.68,49.041 23.193,50.133 							"/>
							<polygon fill="#80D6CE" points="40.429,48.152 39.033,47.113 38.604,48.394 							"/>
							<polygon fill="#80D6CE" points="46.394,59.833 44.647,59.078 44.107,60.119 							"/>
						</g>
						<g>
							<polygon fill="#80D6CE" points="48.365,53.641 47.667,52.152 47.1,54.235 							"/>
							<polygon fill="#80D6CE" points="32.771,65.313 32.212,64.121 31.797,65.043 							"/>
							<polygon fill="#80D6CE" points="28.095,52.251 27.397,50.763 27.158,51.964 							"/>
							<polygon fill="#80D6CE" points="36.652,39.518 35.248,38.848 35.76,39.939 							"/>
							<polygon fill="#80D6CE" points="52.996,37.959 51.6,36.92 51.172,38.201 							"/>
							<polygon fill="#80D6CE" points="58.962,49.639 57.215,48.885 56.674,49.925 							"/>
						</g>
						<g>
							<polygon fill="#80D6CE" points="57.187,50.668 56.488,49.18 55.921,51.262 							"/>
							<polygon fill="#80D6CE" points="41.592,62.34 41.033,61.15 40.618,62.071 							"/>
							<polygon fill="#80D6CE" points="36.916,49.279 36.218,47.791 35.979,48.992 							"/>
							<polygon fill="#80D6CE" points="45.474,36.546 44.069,35.876 44.581,36.968 							"/>
							<polygon fill="#80D6CE" points="61.817,34.987 60.421,33.948 59.993,35.228 							"/>
							<polygon fill="#80D6CE" points="67.783,46.667 66.036,45.913 65.495,46.953 							"/>
						</g>
						<g>
							<polygon fill="#80D6CE" points="40.513,92.332 39.814,90.843 39.247,92.925 							"/>
							<polygon fill="#80D6CE" points="20.242,90.943 19.543,89.454 19.305,90.655 							"/>
							<polygon fill="#80D6CE" points="28.8,78.209 27.395,77.539 27.907,78.631 							"/>
							<polygon fill="#80D6CE" points="45.143,76.65 43.747,75.611 43.319,76.893 							"/>
							<polygon fill="#80D6CE" points="51.109,88.331 49.362,87.576 48.821,88.617 							"/>
						</g>
					</g>
					<g>
						<g>
							<polygon fill="#06897F" points="75.631,72.006 72.663,71.434 73.369,72.767 							"/>
							<polygon fill="#06897F" points="71.024,80.745 70.448,82.996 69.599,82.11 							"/>
							<polygon fill="#06897F" points="88.3,81.502 87.401,81.387 87.774,82.006 							"/>
							<polygon fill="#06897F" points="62.807,78.508 60.012,77.176 60.717,79.654 							"/>
							<polygon fill="#06897F" points="59.386,91.892 58.476,90.942 58.061,92.251 							"/>
						</g>
						<g>
							<polygon fill="#06897F" points="84.947,71.507 84.37,73.758 83.522,72.872 							"/>
							<polygon fill="#06897F" points="76.729,69.271 73.935,67.939 74.64,70.417 							"/>
							<polygon fill="#06897F" points="73.31,82.654 72.399,81.705 71.984,83.014 							"/>
						</g>
						<g>
							<polygon fill="#06897F" points="58.717,84.29 56.265,86.058 57.72,86.458 							"/>
							<polygon fill="#06897F" points="61.918,93.636 63.161,95.599 61.935,95.609 							"/>
							<polygon fill="#06897F" points="74.319,81.588 73.619,82.162 74.325,82.316 							"/>
							<polygon fill="#06897F" points="54.655,98.08 51.767,99.2 54.055,100.386 							"/>
						</g>
						<g>
							<polygon fill="#06897F" points="86.058,67.666 83.606,69.433 85.061,69.833 							"/>
							<polygon fill="#06897F" points="89.259,77.011 90.502,78.974 89.276,78.984 							"/>
							<polygon fill="#06897F" points="81.995,81.455 79.108,82.575 81.396,83.761 							"/>
							<polygon fill="#06897F" points="89.39,93.123 88.075,93.133 88.743,94.334 							"/>
						</g>
						<g>
							<polygon fill="#06897F" points="101.979,62.89 99.527,64.657 100.982,65.057 							"/>
							<polygon fill="#06897F" points="97.916,76.678 95.029,77.798 97.317,78.986 							"/>
						</g>
						<g>
							<polygon fill="#06897F" points="74.037,64.153 71.585,65.92 73.039,66.32 							"/>
							<polygon fill="#06897F" points="77.238,73.498 78.481,75.461 77.254,75.471 							"/>
							<polygon fill="#06897F" points="89.639,61.45 88.939,62.025 89.644,62.178 							"/>
							<polygon fill="#06897F" points="69.973,77.941 67.087,79.062 69.374,80.248 							"/>
							<polygon fill="#06897F" points="77.37,89.61 76.054,89.621 76.721,90.821 							"/>
						</g>
						<g>
							<polygon fill="#06897F" points="100.02,67.5 97.567,69.266 99.022,69.667 							"/>
							<polygon fill="#06897F" points="95.957,81.288 93.069,82.408 95.357,83.595 							"/>
						</g>
						<g>
							<polygon fill="#06897F" points="63.952,78.821 61.5,80.588 62.955,80.988 							"/>
							<polygon fill="#06897F" points="67.153,88.167 68.396,90.129 67.169,90.14 							"/>
							<polygon fill="#06897F" points="79.554,76.118 78.854,76.693 79.56,76.846 							"/>
							<polygon fill="#06897F" points="59.889,92.61 57.002,93.73 59.29,94.917 							"/>
						</g>
						<g>
							<polygon fill="#80D6CE" points="77.762,81.121 76.625,79.935 76.753,82.089 							"/>
							<polygon fill="#80D6CE" points="66.718,97.164 65.808,96.215 65.709,97.22 							"/>
							<polygon fill="#80D6CE" points="58.111,86.283 56.973,85.096 57.131,86.31 							"/>
							<polygon fill="#80D6CE" points="62.148,71.483 60.603,71.297 61.437,72.168 							"/>
							<polygon fill="#80D6CE" points="77.136,64.784 75.481,64.245 75.484,65.595 							"/>
							<polygon fill="#80D6CE" points="86.523,73.944 84.627,73.787 84.447,74.946 							"/>
						</g>
						<g>
							<polygon fill="#80D6CE" points="60.089,91.674 58.952,90.487 59.08,92.641 							"/>
							<polygon fill="#80D6CE" points="40.438,96.835 39.3,95.649 39.458,96.863 							"/>
							<polygon fill="#80D6CE" points="44.475,82.036 42.929,81.849 43.764,82.72 							"/>
							<polygon fill="#80D6CE" points="59.463,75.336 57.808,74.797 57.812,76.148 							"/>
							<polygon fill="#80D6CE" points="68.85,84.497 66.953,84.34 66.774,85.499 							"/>
						</g>
						<g>
							<polygon fill="#80D6CE" points="91.435,94.437 90.525,93.487 90.426,94.493 							"/>
							<polygon fill="#80D6CE" points="82.828,83.556 81.69,82.368 81.849,83.583 							"/>
							<polygon fill="#80D6CE" points="86.865,68.756 85.32,68.57 86.154,69.44 							"/>
						</g>
						<g>
							<polygon fill="#80D6CE" points="71.778,86.652 71.999,85.022 70.393,86.464 							"/>
							<polygon fill="#80D6CE" points="52.344,88.002 52.521,86.698 51.672,87.247 							"/>
							<polygon fill="#80D6CE" points="55.502,74.493 55.723,72.864 54.87,73.744 							"/>
							<polygon fill="#80D6CE" points="69.599,68.436 68.783,67.111 68.621,68.306 							"/>
							<polygon fill="#80D6CE" points="84.176,75.988 83.567,74.358 82.512,75.202 							"/>
							<polygon fill="#80D6CE" points="82.851,89.036 81.793,87.455 80.774,88.035 							"/>
						</g>
						<g>
							<polygon fill="#80D6CE" points="85.334,83.686 85.555,82.057 83.949,83.498 							"/>
							<polygon fill="#80D6CE" points="65.9,85.036 66.077,83.732 65.228,84.281 							"/>
							<polygon fill="#80D6CE" points="69.058,71.527 69.278,69.898 68.427,70.778 							"/>
							<polygon fill="#80D6CE" points="83.155,65.47 82.339,64.145 82.177,65.34 							"/>
							<polygon fill="#80D6CE" points="97.732,73.022 97.124,71.392 96.069,72.236 							"/>
							<polygon fill="#80D6CE" points="96.406,86.07 95.349,84.489 94.33,85.07 							"/>
						</g>
						<g>
							<polygon fill="#80D6CE" points="81.989,83.287 82.165,81.983 81.317,82.533 							"/>
							<polygon fill="#80D6CE" points="85.147,69.778 85.368,68.149 84.515,69.028 							"/>
							<polygon fill="#80D6CE" points="99.244,63.721 98.427,62.396 98.266,63.591 							"/>
						</g>
						<g>
							<polygon fill="#80D6CE" points="91.012,85.573 91.189,84.269 90.34,84.818 							"/>
							<polygon fill="#80D6CE" points="94.171,72.064 94.391,70.435 93.539,71.315 							"/>
						</g>
						<g>
							<polygon fill="#80D6CE" points="57.557,98.026 57.778,96.397 56.925,97.277 							"/>
							<polygon fill="#80D6CE" points="71.655,91.968 70.838,90.644 70.676,91.839 							"/>
							<polygon fill="#80D6CE" points="86.232,99.521 85.623,97.89 84.568,98.735 							"/>
						</g>
					</g>
					<g>
						<g>
							<polygon fill="#06897F" points="2.073,92.708 -0.895,92.136 -0.188,93.47 							"/>
						</g>
						<g>
							<polygon fill="#06897F" points="11.39,92.21 10.813,94.461 9.965,93.575 							"/>
							<polygon fill="#06897F" points="28.665,92.967 27.766,92.853 28.139,93.471 							"/>
							<polygon fill="#06897F" points="3.172,89.973 0.377,88.642 1.082,91.12 							"/>
						</g>
						<g>
							<polygon fill="#06897F" points="12.501,88.368 10.048,90.135 11.503,90.535 							"/>
							<polygon fill="#06897F" points="15.702,97.714 16.945,99.677 15.718,99.687 							"/>
							<polygon fill="#06897F" points="28.103,85.666 27.403,86.24 28.109,86.394 							"/>
						</g>
						<g>
							<polygon fill="#06897F" points="28.422,83.592 25.969,85.359 27.424,85.76 							"/>
							<polygon fill="#06897F" points="31.623,92.938 32.866,94.9 31.639,94.91 							"/>
							<polygon fill="#06897F" points="44.024,80.89 43.324,81.465 44.03,81.618 							"/>
							<polygon fill="#06897F" points="24.359,97.381 21.472,98.501 23.759,99.688 							"/>
						</g>
						<g>
							<polygon fill="#06897F" points="0.479,84.855 -1.973,86.622 -0.518,87.023 							"/>
							<polygon fill="#06897F" points="3.68,94.201 4.923,96.164 3.697,96.174 							"/>
							<polygon fill="#06897F" points="16.081,82.153 15.381,82.727 16.087,82.881 							"/>
						</g>
						<g>
							<polygon fill="#06897F" points="26.462,88.202 24.01,89.969 25.465,90.37 							"/>
							<polygon fill="#06897F" points="29.663,97.547 30.906,99.51 29.679,99.52 							"/>
							<polygon fill="#06897F" points="42.064,85.499 41.364,86.074 42.07,86.227 							"/>
						</g>
						<g>
							<polygon fill="#06897F" points="5.997,96.821 5.297,97.395 6.003,97.549 							"/>
						</g>
						<g>
							<polygon fill="#80D6CE" points="3.578,85.486 1.923,84.948 1.927,86.298 							"/>
							<polygon fill="#80D6CE" points="12.966,94.647 11.069,94.49 10.89,95.649 							"/>
						</g>
						<g>
							<polygon fill="#80D6CE" points="28.922,99.097 27.785,97.91 27.913,100.064 							"/>
							<polygon fill="#80D6CE" points="13.307,89.459 11.763,89.272 12.597,90.143 							"/>
							<polygon fill="#80D6CE" points="28.295,82.759 26.641,82.22 26.645,83.571 							"/>
							<polygon fill="#80D6CE" points="37.683,91.92 35.786,91.763 35.606,92.922 							"/>
						</g>
						<g>
							<polygon fill="#80D6CE" points="10.619,96.691 10.01,95.061 8.955,95.904 							"/>
						</g>
						<g>
							<polygon fill="#80D6CE" points="9.598,86.172 8.782,84.847 8.619,86.042 							"/>
							<polygon fill="#80D6CE" points="24.175,93.725 23.566,92.094 22.511,92.939 							"/>
						</g>
						<g>
							<polygon fill="#80D6CE" points="11.59,90.48 11.81,88.851 10.958,89.731 							"/>
							<polygon fill="#80D6CE" points="25.687,84.423 24.87,83.099 24.709,84.294 							"/>
							<polygon fill="#80D6CE" points="40.264,91.976 39.655,90.345 38.6,91.19 							"/>
						</g>
						<g>
							<polygon fill="#80D6CE" points="20.613,92.767 20.834,91.137 19.981,92.017 							"/>
							<polygon fill="#80D6CE" points="34.711,86.709 33.894,85.385 33.732,86.579 							"/>
							<polygon fill="#80D6CE" points="49.287,94.262 48.679,92.631 47.624,93.476 							"/>
						</g>
					</g>
					<g>
						<g>
							<g>
								<g>
									<polygon fill="#06897F" points="60.882,93.716 60.607,94.58 61.283,94.325 									"/>
								</g>
								<g>
									<polygon fill="#06897F" points="61.737,98.652 61.461,99.514 62.138,99.26 									"/>
								</g>
							</g>
						</g>
					</g>
				</g>
			</g>
		</g>
	</g>
</g>
<g id="buena_6_">
	<defs>
		<rect id="SVGID_35_" x="0.005" y="0.005" width="99.99" height="99.991"/>
	</defs>
	<clipPath id="SVGID_4_">
		<use xlink:href="#SVGID_35_"  overflow="visible"/>
	</clipPath>
	<g clip-path="url(#SVGID_4_)">
		<g>
			<defs>
				<polyline id="SVGID_37_" points="68.857,22.341 81.404,14.35 99.996,7.589 99.911,91.178 80.565,72.115 70.636,53.901 
					64.887,37.139 				"/>
			</defs>
			<clipPath id="SVGID_6_">
				<use xlink:href="#SVGID_37_"  overflow="visible"/>
			</clipPath>
			<g clip-path="url(#SVGID_6_)">
				<polygon fill="#06897F" points="97.588,90.653 97.654,89.75 98.186,90.237 				"/>
			</g>
			<g clip-path="url(#SVGID_6_)">
				<polygon fill="#06897F" points="82.468,67.121 82.532,66.217 83.065,66.705 				"/>
			</g>
			<g clip-path="url(#SVGID_6_)">
				<polygon fill="#80D6CE" points="96.769,7.244 95.468,7.05 96.232,6.388 				"/>
				<polygon fill="#80D6CE" points="82.912,6.512 81.285,6.27 82.368,5.697 				"/>
				<polygon fill="#80D6CE" points="73.165,18.363 72.12,17.21 73.313,17.388 				"/>
			</g>
			<g clip-path="url(#SVGID_6_)">
				<polygon fill="#80D6CE" points="76.587,46.729 75.033,46.829 75.915,46.006 				"/>
			</g>
		</g>
		<g>
			<g>
				<rect x="21.758" y="8" fill="#DB8D03" width="5" height="6"/>
				<path fill="#DB8D03" d="M1.966-21.644c0,0,19.162,32.742,26.834,38.964c9.869,8.005,19.211,2.071,19.211,2.071l5.897-1.744
					l5.92-2.905l18.665-8.647l4.141-5.843L1.966-21.644z"/>
				<path fill="#FFCE31" d="M11.683-7.719c0,0,4.319,6.475,5.47,7.936c0.515,0.653,6.057,12.772,6.057,12.772l17.713,8.488
					l22.013-9.914l1.111-0.943l19.3-11.059l4.413,0.493l-24.773,15.16L39.501,27.499c0,0-2.204,0.068-3.433-0.74
					c-1.229-0.809-22.193-7.681-22.193-7.681L10.821-1.098L-4.725-25.039l7.167,2.135L11.683-7.719"/>
				<path fill="#FFCE31" d="M33.014,21.871c-1.539,0.281-2.6,2.133-2.218,4.226l0.017,0.093c0.382,2.093,2.03,3.451,3.569,3.17
					l8.791-1.488c1.539-0.281,0.642-1.894,0.26-3.987l-0.017-0.093c-0.383-2.093-0.124-2.28-1.662-1.998L33.014,21.871z"/>
				<g>
					<defs>
						<polygon id="SVGID_39_" points="1.892,-22.875 15.197,0.802 30.16,15.171 44.82,25.124 60.142,25.186 71.15,15.18 
							82.56,-0.979 						"/>
					</defs>
					<clipPath id="SVGID_8_">
						<use xlink:href="#SVGID_39_"  overflow="visible"/>
					</clipPath>
					<g clip-path="url(#SVGID_8_)">
						<polygon fill="#A55404" points="37.57,4.388 39.014,7.044 39.594,5.651 						"/>
						<polygon fill="#A55404" points="47.247,2.393 49.351,1.407 49.206,2.626 						"/>
						<polygon fill="#A55404" points="50.74,10.159 49.202,12.773 51.552,10.962 						"/>
						<polygon fill="#A55404" points="63.251,4.295 63.095,5.602 64.371,5.091 						"/>
					</g>
					<g clip-path="url(#SVGID_8_)">
						<polygon fill="#A55404" points="34.758,5.278 35.506,8.283 36.972,6.163 						"/>
					</g>
					<g clip-path="url(#SVGID_8_)">
						<polygon fill="#A55404" points="32.516,10.61 35.438,11.382 34.823,10.003 						"/>
						<polygon fill="#A55404" points="45.749,4.985 48.448,6.503 47.912,3.982 						"/>
					</g>
					<g clip-path="url(#SVGID_8_)">
						<polygon fill="#A55404" points="50.253,9.076 53.176,9.847 52.561,8.469 						"/>
						<polygon fill="#A55404" points="55.439,0.665 56.166,-1.542 56.953,-0.602 						"/>
						<polygon fill="#A55404" points="63.486,3.451 66.186,4.969 65.649,2.448 						"/>
					</g>
					<g clip-path="url(#SVGID_8_)">
						<polygon fill="#FFA631" points="31.034,7.816 31.669,9.437 32.71,8.575 						"/>
					</g>
					<g clip-path="url(#SVGID_8_)">
						<polygon fill="#FFA631" points="62.636,3.891 62.442,5.524 64.024,4.057 						"/>
						<polygon fill="#80D6CE" points="82.046,2.225 81.89,3.531 82.73,2.968 						"/>
						<polygon fill="#80D6CE" points="79.108,15.787 78.914,17.42 79.752,16.526 						"/>
						<polygon fill="#80D6CE" points="65.111,22.074 65.949,23.386 66.092,22.189 						"/>
						<polygon fill="#FFA631" points="51.526,1.687 52.61,3.251 53.619,2.653 						"/>
					</g>
					<g clip-path="url(#SVGID_8_)">
						<polygon fill="#FFA631" points="53.817,3.623 52.697,4.315 53.66,4.621 						"/>
						<polygon fill="#FFA631" points="41.375,9.768 39.976,10.634 41.198,10.733 						"/>
						<polygon fill="#FFA631" points="27.74,2.732 27.235,4.204 28.261,3.57 						"/>
					</g>
					<g clip-path="url(#SVGID_8_)">
						<polygon fill="#FFA631" points="69.151,1.81 67.753,2.675 68.974,2.774 						"/>
					</g>
				</g>
				<g>
					<path fill="#DB8D03" d="M22.363,2.745l0.272-2.286c0.036-0.304,0.275-0.533,0.565-0.572c-0.051-0.02-0.103-0.035-0.161-0.042
						c-0.361-0.043-0.689,0.215-0.73,0.576l-0.272,2.286c-0.043,0.36,0.215,0.688,0.576,0.731c0.057,0.006,0.111,0.003,0.166-0.004
						C22.505,3.327,22.326,3.049,22.363,2.745z"/>
				</g>
				<g>
					<path fill="#DB8D03" d="M34.985,18.63l0.214-1.801c0.029-0.239,0.252-0.416,0.481-0.446c-0.04-0.015-0.134-0.034-0.179-0.04
						c-0.285-0.034-0.595,0.163-0.628,0.447l-0.215,1.802c-0.033,0.284,0.239,0.55,0.524,0.584c0.044,0.005,0.088,0.003,0.13-0.003
						C35.098,19.089,34.957,18.869,34.985,18.63z"/>
				</g>
				<polygon fill="#E5AE13" points="38.928,21.721 22.649,14.965 16.136,-0.164 17.4,-0.15 24.34,13.604 40.922,21.477 				"/>
				<path fill="#DB8D03" d="M41.753,21.794l-10.121,1.239c0,0-1.027,1.243-0.826,3.145c0,0,8.971-3.604,11.47-3.496
					C44.775,22.791,41.753,21.794,41.753,21.794z"/>
				<path fill="#390932" d="M42.312,29.228c0,0-4.656-2.571-1.783-8.885l7.772,3.327L42.312,29.228z"/>
				<path fill="#FFCE31" d="M65.098,16.427c-1.213,0.132-2.419-1.017-2.598-2.667l-0.008-0.073c-0.18-1.65,0.751-3.032,1.964-3.164
					l6.905-0.842c1.213-0.132,0.901,1.273,1.081,2.923l0.008,0.073c0.18,1.651,0.767,2.776-0.446,2.907L65.098,16.427z"/>
				<path fill="#390932" d="M71.28,9.242c0,0-2.91,2.958,0.641,7.041l5.072-4.216L71.28,9.242z"/>
			</g>
		</g>
	</g>
	<g clip-path="url(#SVGID_4_)">
		<defs>
			<polyline id="SVGID_41_" points="18.879,5.425 18.886,86.539 100,86.531 99.992,5.417 			"/>
		</defs>
		<clipPath id="SVGID_10_">
			<use xlink:href="#SVGID_41_"  overflow="visible"/>
		</clipPath>
		<g clip-path="url(#SVGID_10_)">
			<path fill="#DB8D03" d="M99.928,79.382c0,0-24.488-21.305-24.772-29.313c-0.286-8.008-2.266-19.22-2.266-19.22l6.585-11.583
				l15.066-5.698l5.457-1.995L99.928,79.382z"/>
			<path fill="#FFCE31" d="M90.154,68.487c0,0-4.467-6.24-5.366-7.453c-0.898-1.213-8.709-18.825-8.709-18.825l-0.49-17.253
				l24.404-11.138l0.045-5.701c0,0-25.554,12.178-29.106,13.089c-3.553,0.91-3.353,5.616-3.353,5.616s0.421,14.09,0.792,15.224
				c0.371,1.134,7.075,14.091,7.075,14.091L85.83,72.159l14.38,12.863l-0.143-6.065L90.154,68.487"/>
			<path fill="#FFCE31" d="M76.967,53.306c-1.749-0.26-3.46,1.501-3.835,4.016l0,0c-0.374,2.514,0.75,4.697,2.499,4.958l10.556,1.57
				c1.749,0.26,0.558-1.933,0.932-4.447l0,0c0.374-2.514,2.152-4.266,0.403-4.526L76.967,53.306z"/>
			<path fill="#FFCE31" d="M70.515,20.515c-1.749-0.26-3.426,1.272-3.746,3.422l0,0c-0.131,0.878-0.021,1.767,0.278,2.49
				c0.435,1.049,1.254,1.852,2.289,2.006l7.654,1.138c1.749,0.261,3.435-1.337,3.755-3.487l0,0c0.32-2.15-0.829-4.17-2.578-4.431
				L70.515,20.515z"/>
			<path fill="#FFCE31" d="M81.15,15.623c-1.272-0.189-2.545,0.382-2.706,1.462l-0.007,0.047c-0.16,1.08,0.852,2.26,2.124,2.45
				l5.647,0.84c1.272,0.189,2.097-0.718,2.258-1.798l0.007-0.048c0.161-1.08-0.404-1.924-1.676-2.114L81.15,15.623z"/>
			<path fill="#FFCE31" d="M69.494,38.437c-1.263-0.112-2.494,1.107-2.647,2.826l-0.007,0.076c-0.153,1.719,0.843,3.137,2.106,3.249
				l7.195,0.736c1.264,0.112,0.911-1.342,1.064-3.061l0.007-0.076c0.153-1.72,0.741-2.901-0.523-3.013L69.494,38.437z"/>
			<path fill="#FFCE31" d="M93.407,75.721l0.758-4.749l-6.621-0.985c-1.081-0.161-2.209,0.506-2.407,1.838l-0.008,0.058
				c-0.198,1.331,0.629,2.693,1.709,2.854l6.622,0.985"/>
			<g>
				<defs>
					<polygon id="SVGID_43_" points="99.928,79.382 84.234,63.919 76.18,49.142 71.516,35.545 74.736,23.54 84.915,17.058 
						99.997,11.574 					"/>
				</defs>
				<clipPath id="SVGID_12_">
					<use xlink:href="#SVGID_43_"  overflow="visible"/>
				</clipPath>
				<g clip-path="url(#SVGID_12_)">
					<polygon fill="#A55404" points="86.199,45.643 84.429,43.947 85.643,43.789 					"/>
					<polygon fill="#A55404" points="89.825,38.494 91.045,37.057 90.061,36.911 					"/>
					<polygon fill="#A55404" points="98.427,49.575 97.93,49.034 98.515,48.991 					"/>
					<polygon fill="#A55404" points="84.491,34.103 82.298,32.878 84.271,32.183 					"/>
					<polygon fill="#A55404" points="91.749,25.562 90.694,25.405 91.366,24.516 					"/>
				</g>
				<g clip-path="url(#SVGID_12_)">
					<polygon fill="#A55404" points="90.237,52.043 91.458,50.606 90.473,50.46 					"/>
					<polygon fill="#A55404" points="98.839,63.125 98.343,62.584 98.927,62.54 					"/>
					<polygon fill="#A55404" points="84.903,47.653 82.71,46.428 84.682,45.732 					"/>
					<polygon fill="#A55404" points="92.162,39.112 91.106,38.954 91.777,38.065 					"/>
				</g>
				<g clip-path="url(#SVGID_12_)">
					<polygon fill="#A55404" points="86.403,28.685 86.422,26.233 87.37,27.008 					"/>
					<polygon fill="#A55404" points="94.092,26.42 95.975,26.322 95.406,25.505 					"/>
					<polygon fill="#A55404" points="91.929,40.281 91.981,39.547 92.414,39.943 					"/>
					<polygon fill="#A55404" points="93.628,19.527 93.016,17.09 94.874,18.048 					"/>
				</g>
				<g clip-path="url(#SVGID_12_)">
					<polygon fill="#A55404" points="88.215,54.581 88.235,52.129 89.182,52.905 					"/>
					<polygon fill="#A55404" points="95.904,52.317 97.786,52.219 97.218,51.402 					"/>
					<polygon fill="#A55404" points="93.741,66.177 93.793,65.444 94.226,65.84 					"/>
					<polygon fill="#A55404" points="95.44,45.424 94.828,42.987 96.686,43.945 					"/>
				</g>
				<g clip-path="url(#SVGID_12_)">
					<polygon fill="#A55404" points="92.518,67.361 92.538,64.908 93.485,65.684 					"/>
					<polygon fill="#06897F" points="98.044,78.956 98.097,78.224 98.529,78.62 					"/>
					<polygon fill="#A55404" points="99.743,58.203 99.131,55.767 100.989,56.725 					"/>
				</g>
				<g clip-path="url(#SVGID_12_)">
					<polygon fill="#A55404" points="80.252,48.271 80.271,45.819 81.219,46.595 					"/>
					<polygon fill="#A55404" points="87.941,46.007 89.823,45.908 89.254,45.092 					"/>
					<polygon fill="#06897F" points="85.778,59.867 85.83,59.134 86.262,59.53 					"/>
					<polygon fill="#A55404" points="87.477,39.114 86.865,36.678 88.723,37.635 					"/>
					<polygon fill="#A55404" points="98.671,38.536 98.061,37.661 99.169,37.54 					"/>
				</g>
				<g clip-path="url(#SVGID_12_)">
					<polygon fill="#A55404" points="94.651,63.902 94.671,61.449 95.618,62.224 					"/>
				</g>
				<g clip-path="url(#SVGID_12_)">
					<polygon fill="#A55404" points="85.236,34.715 85.255,32.264 86.203,33.038 					"/>
					<polygon fill="#A55404" points="92.924,32.451 94.807,32.353 94.239,31.536 					"/>
					<polygon fill="#A55404" points="90.762,46.311 90.814,45.578 91.247,45.973 					"/>
					<polygon fill="#A55404" points="92.461,25.558 91.848,23.122 93.708,24.079 					"/>
				</g>
				<g clip-path="url(#SVGID_12_)">
					<polygon fill="#FFA631" points="93.235,42.779 91.915,42.582 93.401,41.656 					"/>
					<polygon fill="#FFA631" points="98.679,27.941 97.623,27.785 98.243,27.248 					"/>
					<polygon fill="#FFA631" points="87.437,27.349 86.117,27.152 86.996,26.687 					"/>
					<polygon fill="#FFA631" points="79.531,36.963 78.683,36.027 79.651,36.171 					"/>
					<polygon fill="#FFA631" points="82.122,50.027 80.99,49.184 81.886,48.553 					"/>
					<polygon fill="#FFA631" points="92.59,51.944 91.597,50.762 92.28,50.1 					"/>
				</g>
				<g clip-path="url(#SVGID_12_)">
					<polygon fill="#FFA631" points="91.935,26.13 90.616,25.933 92.102,25.008 					"/>
					<polygon fill="#80D6CE" points="97.379,11.293 96.324,11.137 96.943,10.6 					"/>
					<polygon fill="#80D6CE" points="86.138,10.7 84.818,10.503 85.696,10.039 					"/>
					<polygon fill="#80D6CE" points="78.231,20.314 77.383,19.378 78.351,19.522 					"/>
					<polygon fill="#FFA631" points="80.823,33.378 79.69,32.535 80.586,31.904 					"/>
					<polygon fill="#FFA631" points="91.291,35.295 90.297,34.113 90.981,33.451 					"/>
				</g>
				<g clip-path="url(#SVGID_12_)">
					<polygon fill="#FFA631" points="97.222,44.99 95.902,44.794 96.781,44.328 					"/>
					<polygon fill="#FFA631" points="89.315,54.604 88.467,53.668 89.435,53.813 					"/>
					<polygon fill="#FFA631" points="91.907,67.668 90.774,66.825 91.669,66.195 					"/>
				</g>
				<g clip-path="url(#SVGID_12_)">
					<polygon fill="#FFA631" points="94.09,36.223 93.115,37.134 93.317,35.394 					"/>
					<polygon fill="#FFA631" points="85.871,22.725 85.091,23.453 85.057,22.634 					"/>
					<polygon fill="#FFA631" points="78.407,31.152 77.432,32.062 77.615,31.085 					"/>
					<polygon fill="#80D6CE" points="81.007,43.325 79.747,43.406 80.462,42.738 					"/>
					<polygon fill="#FFA631" points="92.843,49.432 91.478,49.794 91.542,48.7 					"/>
					<polygon fill="#FFA631" points="100.861,42.434 99.318,42.475 99.225,41.528 					"/>
				</g>
				<g clip-path="url(#SVGID_12_)">
					<polygon fill="#FFA631" points="98.483,46.588 97.507,47.498 97.709,45.759 					"/>
					<polygon fill="#FFA631" points="90.264,33.089 89.484,33.818 89.449,32.999 					"/>
					<polygon fill="#FFA631" points="82.8,41.517 81.824,42.427 82.007,41.449 					"/>
					<polygon fill="#FFA631" points="85.4,53.689 84.139,53.771 84.854,53.103 					"/>
					<polygon fill="#FFA631" points="97.236,59.797 95.871,60.158 95.935,59.064 					"/>
				</g>
				<g clip-path="url(#SVGID_12_)">
					<polygon fill="#FFA631" points="96.65,44.56 95.87,45.289 95.835,44.469 					"/>
					<polygon fill="#FFA631" points="89.186,52.987 88.21,53.897 88.394,52.92 					"/>
					<polygon fill="#FFA631" points="91.785,65.16 90.525,65.242 91.241,64.574 					"/>
				</g>
				<g clip-path="url(#SVGID_12_)">
					<polygon fill="#FFA631" points="94.931,57.888 93.956,58.798 94.139,57.822 					"/>
					<polygon fill="#FFA631" points="97.531,70.061 96.271,70.142 96.986,69.475 					"/>
				</g>
				<g clip-path="url(#SVGID_12_)">
					<polygon fill="#FFA631" points="94.954,21.474 93.978,22.384 94.161,21.407 					"/>
					<polygon fill="#FFA631" points="97.553,33.647 96.293,33.728 97.008,33.061 					"/>
				</g>
			</g>
			<g>
				<path fill="#E5AE13" d="M83.742,59.44c-0.291-0.043-0.563,0.158-0.606,0.45l0,0c-0.043,0.291,0.158,0.563,0.449,0.606
					l1.848,0.274c0.291,0.044,0.563-0.157,0.606-0.449l0,0c0.043-0.292-0.158-0.563-0.45-0.606L83.742,59.44z"/>
				<path fill="#DB8D03" d="M83.624,60.232l1.847,0.275c0.246,0.036,0.476-0.102,0.569-0.321c0.005,0.044,0.006,0.089-0.001,0.135
					c-0.044,0.292-0.315,0.493-0.606,0.449l-1.848-0.274c-0.291-0.044-0.492-0.315-0.449-0.606c0.007-0.046,0.021-0.089,0.038-0.13
					C83.199,59.996,83.378,60.195,83.624,60.232z"/>
			</g>
			<g>
				<path fill="#E5AE13" d="M84.359,57.104c-0.291-0.044-0.563,0.157-0.606,0.449l0,0c-0.043,0.292,0.158,0.563,0.449,0.606
					l1.847,0.275c0.292,0.044,0.563-0.157,0.606-0.45l0,0c0.043-0.291-0.158-0.563-0.449-0.606L84.359,57.104z"/>
				<path fill="#DB8D03" d="M84.242,57.896l1.847,0.274c0.245,0.037,0.475-0.102,0.568-0.32c0.005,0.044,0.006,0.089-0.001,0.134
					c-0.043,0.292-0.314,0.493-0.606,0.45l-1.847-0.275c-0.291-0.043-0.492-0.315-0.449-0.606c0.007-0.046,0.021-0.088,0.039-0.129
					C83.816,57.66,83.996,57.859,84.242,57.896z"/>
			</g>
			<g>
				<path fill="#E5AE13" d="M75.732,25.338c-0.219-0.033-0.422,0.118-0.455,0.337l0,0c-0.032,0.219,0.119,0.422,0.337,0.455
					l1.584,0.235c0.218,0.033,0.422-0.118,0.454-0.337l0,0c0.033-0.218-0.119-0.422-0.337-0.455L75.732,25.338z"/>
				<path fill="#DB8D03" d="M75.667,25.918l1.455,0.216c0.193,0.029,0.379-0.108,0.452-0.28c0.004,0.034-0.002,0.111-0.007,0.147
					c-0.034,0.23-0.255,0.43-0.484,0.396l-1.456-0.217c-0.229-0.034-0.38-0.304-0.345-0.534c0.005-0.036,0.016-0.069,0.03-0.101
					C75.332,25.733,75.473,25.889,75.667,25.918z"/>
			</g>
			<g>
				<path fill="#E5AE13" d="M73.158,24.578c-0.131-0.02-0.253,0.075-0.273,0.211l0,0c-0.021,0.136,0.069,0.261,0.2,0.28l0.948,0.141
					c0.131,0.02,0.253-0.075,0.273-0.211l0,0c0.02-0.136-0.069-0.262-0.2-0.281L73.158,24.578z"/>
				<path fill="#DB8D03" d="M73.127,24.939l0.904,0.135c0.12,0.018,0.235-0.067,0.281-0.175c0.002,0.022-0.001,0.07-0.005,0.093
					c-0.021,0.143-0.158,0.267-0.301,0.246l-0.904-0.135c-0.143-0.022-0.236-0.189-0.215-0.331c0.003-0.022,0.01-0.044,0.019-0.064
					C72.918,24.824,73.006,24.922,73.127,24.939z"/>
			</g>
			<g>
				<path fill="#E5AE13" d="M73.42,22.818c-0.131-0.02-0.253,0.075-0.274,0.211l0,0c-0.02,0.136,0.07,0.261,0.201,0.281l0.947,0.141
					c0.132,0.019,0.253-0.075,0.274-0.21l0,0c0.02-0.136-0.069-0.262-0.2-0.281L73.42,22.818z"/>
				<path fill="#DB8D03" d="M73.388,23.18l0.905,0.135c0.12,0.017,0.235-0.068,0.28-0.175c0.003,0.022-0.001,0.07-0.004,0.092
					c-0.021,0.143-0.158,0.267-0.301,0.246l-0.905-0.134c-0.143-0.022-0.236-0.189-0.215-0.332c0.004-0.022,0.011-0.043,0.019-0.063
					C73.181,23.065,73.268,23.162,73.388,23.18z"/>
			</g>
			<g>
				<path fill="#E5AE13" d="M79.75,59.657c-0.131-0.019-0.254,0.075-0.274,0.211l0,0c-0.021,0.136,0.069,0.261,0.2,0.281
					l0.947,0.141c0.131,0.019,0.253-0.075,0.273-0.21l0,0c0.02-0.136-0.069-0.262-0.2-0.282L79.75,59.657z"/>
				<path fill="#DB8D03" d="M79.718,60.02l0.904,0.134c0.12,0.018,0.235-0.067,0.281-0.174c0.002,0.022-0.001,0.07-0.005,0.092
					c-0.021,0.143-0.158,0.268-0.301,0.246l-0.904-0.134c-0.143-0.021-0.236-0.189-0.215-0.331c0.004-0.022,0.011-0.044,0.019-0.064
					C79.509,59.904,79.597,60.002,79.718,60.02z"/>
			</g>
			<g>
				<path fill="#E5AE13" d="M74.567,44.047c-0.218-0.033-0.422,0.118-0.455,0.337l0,0c-0.032,0.218,0.119,0.423,0.337,0.455
					l1.584,0.235c0.218,0.032,0.422-0.119,0.454-0.337l0,0c0.033-0.218-0.118-0.422-0.337-0.454L74.567,44.047z"/>
				<path fill="#DB8D03" d="M74.502,44.628l1.455,0.217c0.193,0.028,0.379-0.109,0.452-0.281c0.004,0.035-0.001,0.112-0.007,0.148
					c-0.034,0.229-0.255,0.43-0.484,0.396l-1.456-0.216c-0.23-0.035-0.38-0.304-0.346-0.534c0.006-0.036,0.017-0.069,0.03-0.102
					C74.166,44.442,74.308,44.599,74.502,44.628z"/>
			</g>
			<g>
				<path fill="#E5AE13" d="M73.601,41.475c-0.218-0.033-0.422,0.119-0.455,0.337l0,0c-0.033,0.218,0.118,0.422,0.337,0.455
					l1.584,0.235c0.218,0.033,0.422-0.118,0.454-0.337l0,0c0.033-0.219-0.118-0.422-0.337-0.455L73.601,41.475z"/>
				<path fill="#DB8D03" d="M73.535,42.056l1.456,0.217c0.194,0.029,0.379-0.108,0.452-0.28c0.004,0.035-0.001,0.112-0.007,0.148
					c-0.034,0.23-0.254,0.43-0.484,0.396l-1.456-0.216c-0.229-0.035-0.379-0.305-0.345-0.534c0.005-0.036,0.017-0.07,0.03-0.102
					C73.2,41.87,73.342,42.027,73.535,42.056z"/>
			</g>
			<g>
				<path fill="#E5AE13" d="M84.444,61.972c-0.291-0.043-0.563,0.158-0.606,0.449l0,0c-0.044,0.292,0.157,0.563,0.449,0.606
					l1.847,0.275c0.292,0.044,0.563-0.158,0.606-0.449l0,0c0.043-0.292-0.158-0.563-0.449-0.606L84.444,61.972z"/>
				<path fill="#DB8D03" d="M84.326,62.763l1.848,0.275c0.245,0.037,0.475-0.102,0.568-0.32c0.005,0.044,0.006,0.089-0.001,0.135
					c-0.043,0.291-0.315,0.493-0.606,0.449l-1.847-0.275c-0.292-0.043-0.493-0.315-0.449-0.606c0.007-0.046,0.021-0.088,0.038-0.128
					C83.901,62.528,84.081,62.728,84.326,62.763z"/>
			</g>
			<polygon fill="#FFE471" points="71.465,32.088 71.555,33.509 72.365,33.636 72.276,32.217 			"/>
			<polygon fill="#FFE471" points="70.699,31.435 70.787,32.827 71.598,32.982 71.539,31.592 			"/>
			<polygon fill="#FFE471" points="72.328,44.967 72.797,45.976 73.657,46.165 73.249,45.123 			"/>
			<polygon fill="#FFE471" points="76.576,48.93 77.019,50.058 77.907,50.128 77.437,48.93 			"/>
			<g>
				<polyline fill="#FFCE31" points="85.565,72.236 100.076,85.243 100.049,79.088 89.888,68.564 				"/>
				<polyline fill="#E5AE13" points="92.437,72.269 92.721,71.309 100,78.595 99.986,79.859 92.437,72.269 				"/>
			</g>
			<polygon fill="#FFE471" points="83.526,63.581 84.144,64.526 84.9,64.544 84.301,63.696 			"/>
			<polygon fill="#FFE471" points="86.549,67.276 87.167,68.222 87.924,68.24 87.326,67.391 			"/>
			<polygon fill="#FFE471" points="94.735,74.799 95.56,75.571 96.273,75.579 95.516,74.727 			"/>
			<polygon fill="#FFE471" points="97.511,81.272 98.221,81.936 98.935,81.943 98.327,81.26 			"/>
			<polygon fill="#FFE471" points="97.595,80.711 98.304,81.375 99.018,81.383 98.41,80.699 			"/>
			<polygon fill="#FFE471" points="96.435,80.117 97.145,80.781 97.859,80.788 97.25,80.105 			"/>
			<polygon fill="#FFE471" points="86.489,67.91 86.997,68.687 87.618,68.702 87.126,68.005 			"/>
			<polygon fill="#FFE471" points="77.472,20.342 76.334,20.841 77.035,20.946 78.032,20.459 			"/>
			<polygon fill="#FFE471" points="77.814,19.853 76.677,20.352 77.377,20.456 78.374,19.97 			"/>
			<polygon fill="#FFE471" points="76.152,20.146 75.014,20.644 75.715,20.749 76.712,20.263 			"/>
			<polygon fill="#FFE471" points="85.462,15.596 84.323,16.095 85.024,16.199 86.021,15.713 			"/>
			<polygon fill="#FFE471" points="93.89,13.343 92.752,13.842 93.452,13.946 94.449,13.46 			"/>
			<polygon fill="#FFE471" points="94.232,12.855 93.094,13.353 93.794,13.458 94.791,12.971 			"/>
			<polygon fill="#E5AE13" points="76.067,45.781 80.239,55.412 81.231,53.941 77.504,45.035 			"/>
			<polygon fill="#E5AE13" points="74.039,29.497 74.451,39.983 75.907,38.97 75.649,29.32 			"/>
			<polygon fill="#E5AE13" points="85.902,64.787 91.387,71.739 92.169,70.675 87.06,64.072 			"/>
			<polygon fill="#E5AE13" points="84.856,19.31 85.129,20.261 81.089,22.312 80.013,21.501 			"/>
			<polygon fill="#E5AE13" points="100.092,13.324 100.154,14.696 89.943,17.871 88.866,17.06 			"/>
			<polyline fill="#E5AE13" points="92.637,72.475 92.922,71.515 100.043,78.7 100.024,80.08 92.637,72.475 			"/>
			<path fill="#DB8D03" d="M74.224,54.516l7.653,1.139c0,0-7.258,0.005-8.792,2.067C73.085,57.722,72.998,55.953,74.224,54.516z"/>
			<path fill="#DB8D03" d="M85.219,71.466l6.168,0.272l-6.012,1.768C85.375,73.507,84.82,72.761,85.219,71.466z"/>
			<path fill="#DB8D03" d="M76.344,40.265l-8.181-1.217c0,0-1.072,0.75-1.325,2.281c0,0,7.793-0.881,9.724-0.257
				C78.491,41.697,76.344,40.265,76.344,40.265z"/>
			<path fill="#DB8D03" d="M67.528,26.994l8.089,0.901c0,0-8.878-1.94-8.907-3.563C66.71,24.332,66.605,26.005,67.528,26.994z"/>
			<path fill="#DB8D03" d="M78.437,18.067l8.904,1.071c0,0-8.778-1.52-8.849-2.62C78.493,16.518,78.236,17.712,78.437,18.067z"/>
			<path fill="#390932" d="M86.026,64.635c0,0-3.53-4.977,1.708-11.481l6.266,7.138L86.026,64.635z"/>
			<path fill="#390932" d="M76.067,45.781c0,0-3.086-3.016,0.525-7.333l5.359,4.28L76.067,45.781z"/>
			<path fill="#390932" d="M78.523,30.403c0,0-4.122-3.818,0.117-9.937l7.087,5.338L78.523,30.403z"/>
			<path fill="#390932" d="M86.989,20.949c0,0-2.444-2.051,0.414-4.821l4.243,2.932L86.989,20.949z"/>
			<path fill="#390932" d="M93.36,76.062c0,0-2.607-2.116,0.007-5.571l4.475,2.951L93.36,76.062z"/>
			<g>
				<path fill="#FFCE31" d="M19.994-5.885l4.781,0.517l-0.79,6.647c-0.128,1.085-1.069,1.999-2.406,1.84L21.52,3.112
					c-1.337-0.159-2.433-1.315-2.304-2.399l0.79-6.648"/>
				<g>
					<defs>
						<polyline id="SVGID_45_" points="65.429,25.848 74.36,17.732 83.616,4.622 						"/>
					</defs>
					<clipPath id="SVGID_14_">
						<use xlink:href="#SVGID_45_"  overflow="visible"/>
					</clipPath>
					<g clip-path="url(#SVGID_14_)">
						<polygon fill="#A55404" points="67.952,8.902 67.825,9.962 68.86,9.547 						"/>
					</g>
					<g clip-path="url(#SVGID_14_)">
						<polygon fill="#A55404" points="61.614,5.957 62.204,4.166 62.843,4.929 						"/>
						<polygon fill="#A55404" points="68.142,8.217 70.332,9.448 69.897,7.403 						"/>
					</g>
					<g clip-path="url(#SVGID_14_)">
						<polygon fill="#FFA631" points="67.478,1.59 67.351,2.65 68.033,2.194 						"/>
					</g>
					<g clip-path="url(#SVGID_14_)">
						<polygon fill="#FFA631" points="67.453,8.574 67.295,9.899 68.579,8.708 						"/>
						<polygon fill="#80D6CE" points="83.198,7.222 83.072,8.282 83.753,7.825 						"/>
						<polygon fill="#80D6CE" points="80.815,18.224 80.658,19.549 81.338,18.824 						"/>
						<polygon fill="#80D6CE" points="69.461,23.324 70.141,24.388 70.256,23.417 						"/>
					</g>
					<g clip-path="url(#SVGID_14_)">
						<polygon fill="#80D6CE" points="82.831,1.9 81.923,2.46 82.705,2.71 						"/>
						<polygon fill="#FFA631" points="72.738,6.886 71.603,7.587 72.595,7.668 						"/>
						<polygon fill="#FFA631" points="61.677,1.177 61.268,2.371 62.1,1.857 						"/>
					</g>
				</g>
				<g>
					<polyline fill="#FFCE31" points="21.293,2.597 12.559,-14.823 18.492,-13.179 25.974,-0.609 					"/>
				</g>
				<path fill="#DB8D03" d="M21.945,3.133l1.359-6.023l-3.286,5.336C20.019,2.446,20.591,3.178,21.945,3.133z"/>
			</g>
		</g>
	</g>
</g>
<g>
	<g>
		<g>
			<g>
				<defs>
					<rect id="SVGID_49_" x="-119.995" y="0.005" width="99.989" height="99.96"/>
				</defs>
				<clipPath id="SVGID_16_">
					<use xlink:href="#SVGID_49_"  overflow="visible"/>
				</clipPath>
				<g clip-path="url(#SVGID_16_)">
					<g>
						<g>
							<polygon fill="#06897F" points="1.342,15.532 0.439,15.597 0.926,16.13 							"/>
						</g>
					</g>
				</g>
				<g clip-path="url(#SVGID_16_)">
					<g>
						<g>
							<polygon fill="#80D6CE" points="2.845,73.559 2.236,71.929 1.181,72.773 							"/>
							<polygon fill="#80D6CE" points="1.52,86.606 0.461,85.026 -0.558,85.606 							"/>
						</g>
					</g>
				</g>
			</g>
		</g>
	</g>
</g>
<g>
	<path fill="#FFE471" d="M54,99.964h-8v-7.236C46,71.373,25.586,54,4.231,54H0v-8h4.231C29.997,46,54,66.962,54,92.728V99.964z"/>
	
		<ellipse transform="matrix(0.4018 -0.9157 0.9157 0.4018 -42.6286 39.2937)" fill="#A55404" cx="8.761" cy="52.275" rx="1.079" ry="0.834"/>
	
		<ellipse transform="matrix(0.4017 -0.9158 0.9158 0.4017 -44.7925 33.1397)" fill="#A55404" cx="2.967" cy="50.852" rx="0.487" ry="0.565"/>
	
		<ellipse transform="matrix(0.404 -0.9147 0.9147 0.404 -39.6468 45.1865)" fill="#FFA631" cx="14.855" cy="53.02" rx="0.834" ry="1.08"/>
	
		<ellipse transform="matrix(0.404 -0.9147 0.9147 0.404 -38.6904 40.6544)" fill="#FFA631" cx="11.855" cy="50.02" rx="0.834" ry="1.08"/>
	
		<ellipse transform="matrix(0.404 -0.9147 0.9147 0.404 -41.0328 33.0592)" fill="#FFA631" cx="4.855" cy="48.02" rx="0.834" ry="1.08"/>
	
		<ellipse transform="matrix(0.4018 -0.9157 0.9157 0.4018 -37.1588 55.8475)" fill="#A55404" cx="24.167" cy="56.365" rx="1.079" ry="0.834"/>
	
		<ellipse transform="matrix(0.4017 -0.9158 0.9158 0.4017 -39.3218 49.6943)" fill="#A55404" cx="18.372" cy="54.942" rx="0.487" ry="0.565"/>
	
		<ellipse transform="matrix(0.404 -0.9147 0.9147 0.404 -34.2072 61.7162)" fill="#FFA631" cx="30.26" cy="57.11" rx="0.834" ry="1.08"/>
	
		<ellipse transform="matrix(0.404 -0.9147 0.9147 0.404 -33.2509 57.184)" fill="#FFA631" cx="27.26" cy="54.11" rx="0.834" ry="1.08"/>
	
		<ellipse transform="matrix(0.404 -0.9147 0.9147 0.404 -35.5932 49.5888)" fill="#FFA631" cx="20.26" cy="52.11" rx="0.834" ry="1.08"/>
	
		<ellipse transform="matrix(0.4018 -0.9157 0.9157 0.4018 -36.3893 72.9614)" fill="#A55404" cx="37.651" cy="64.333" rx="1.079" ry="0.834"/>
	
		<ellipse transform="matrix(0.4018 -0.9157 0.9157 0.4018 -36.4409 79.7)" fill="#A55404" cx="42.783" cy="67.742" rx="1.079" ry="0.834"/>
	
		<ellipse transform="matrix(0.4017 -0.9158 0.9158 0.4017 -38.5516 66.8092)" fill="#A55404" cx="31.856" cy="62.91" rx="0.487" ry="0.565"/>
	
		<ellipse transform="matrix(0.4017 -0.9158 0.9158 0.4017 -37.9269 70.6127)" fill="#A55404" cx="35.08" cy="64.334" rx="0.487" ry="0.565"/>
	
		<ellipse transform="matrix(0.4017 -0.9158 0.9158 0.4017 -45.0636 89.8917)" fill="#A55404" cx="46.266" cy="79.435" rx="0.487" ry="0.565"/>
	
		<ellipse transform="matrix(0.404 -0.9147 0.9147 0.404 -40.0178 81.8195)" fill="#FFA631" cx="42.783" cy="71.621" rx="0.834" ry="1.08"/>
	
		<ellipse transform="matrix(0.404 -0.9147 0.9147 0.404 -39.0614 77.2873)" fill="#FFA631" cx="39.783" cy="68.621" rx="0.834" ry="1.08"/>
	
		<ellipse transform="matrix(0.404 -0.9147 0.9147 0.404 -34.8459 66.6719)" fill="#FFA631" cx="33.744" cy="60.078" rx="0.834" ry="1.08"/>
	
		<ellipse transform="matrix(0.4018 -0.9157 0.9157 0.4018 -43.5184 93.3382)" fill="#A55404" cx="49.683" cy="79.978" rx="1.079" ry="0.834"/>
	
		<ellipse transform="matrix(0.4017 -0.9158 0.9158 0.4017 -47.062 91.9197)" fill="#A55404" cx="46.819" cy="81.979" rx="0.487" ry="0.565"/>
	
		<ellipse transform="matrix(0.4017 -0.9158 0.9158 0.4017 -58.8364 105.1831)" fill="#A55404" cx="51.083" cy="97.622" rx="0.487" ry="0.565"/>
	
		<ellipse transform="matrix(0.404 -0.9147 0.9147 0.404 -41.3068 85.1639)" fill="#FFA631" cx="44.705" cy="74.282" rx="0.834" ry="1.08"/>
	
		<ellipse transform="matrix(0.404 -0.9147 0.9147 0.404 -46.7713 97.2098)" fill="#FFA631" cx="51.217" cy="84.499" rx="0.834" ry="1.08"/>
	
		<ellipse transform="matrix(0.4017 -0.9158 0.9158 0.4017 -52.9873 97.073)" fill="#A55404" cx="47.801" cy="89.09" rx="0.487" ry="0.565"/>
	
		<ellipse transform="matrix(0.4018 -0.9157 0.9157 0.4018 -51.4419 100.5188)" fill="#A55404" cx="51.217" cy="89.633" rx="1.079" ry="0.834"/>
	
		<ellipse transform="matrix(0.404 -0.9147 0.9147 0.404 -49.9038 94.1598)" fill="#FFA631" cx="47.31" cy="85.378" rx="0.834" ry="1.08"/>
	
		<ellipse transform="matrix(0.404 -0.9147 0.9147 0.404 -54.7667 103.6045)" fill="#FFA631" cx="52.127" cy="93.832" rx="0.834" ry="1.08"/>
	
		<ellipse transform="matrix(0.404 -0.9147 0.9147 0.404 -57.8992 100.5545)" fill="#FFA631" cx="48.22" cy="94.711" rx="0.834" ry="1.08"/>
	
		<ellipse transform="matrix(0.404 -0.9147 0.9147 0.404 -37.7798 62.1687)" fill="#FFA631" cx="28.821" cy="60.078" rx="0.834" ry="1.08"/>
</g>
<g>
	<g>
		<g>
			<g>
				<defs>
					<rect id="SVGID_75_" x="120.005" y="0.005" width="99.989" height="99.96"/>
				</defs>
				<clipPath id="SVGID_18_">
					<use xlink:href="#SVGID_75_"  overflow="visible"/>
				</clipPath>
				<g clip-path="url(#SVGID_18_)">
					<g>
						<g>
							<g>
								<polygon fill="#06897F" points="96.626,3.06 96.127,1.843 95.261,2.909 								"/>
							</g>
							<g>
							</g>
						</g>
						<g>
							<g>
								<g>
									<polygon fill="#06897F" points="96.564,38.492 97.108,37.294 95.737,37.395 									"/>
								</g>
								<g>
									<polygon fill="#06897F" points="95.887,41.49 94.527,43.374 94.061,42.24 									"/>
									<polygon fill="#06897F" points="89.058,36.403 86.944,34.141 86.694,36.705 									"/>
									<polygon fill="#06897F" points="80.976,47.607 80.477,46.39 79.61,47.456 									"/>
								</g>
								<g>
									<polygon fill="#06897F" points="96.084,39.226 93.97,36.963 93.72,39.527 									"/>
									<polygon fill="#06897F" points="88.002,50.43 87.502,49.212 86.636,50.279 									"/>
								</g>
								<g>
									<polygon fill="#80D6CE" points="94.396,47.257 94.939,46.059 93.968,46.341 									"/>
								</g>
								<g>
									<polygon fill="#80D6CE" points="97.027,39.063 97.707,37.565 95.754,38.486 									"/>
									<polygon fill="#80D6CE" points="78.023,34.783 78.567,33.585 77.596,33.867 									"/>
									<polygon fill="#80D6CE" points="84.924,22.748 85.604,21.25 84.535,21.849 									"/>
									<polygon fill="#80D6CE" points="100.168,20.988 99.765,19.485 99.268,20.583 									"/>
								</g>
								<g>
									<polygon fill="#80D6CE" points="97.556,30.509 98.832,30.189 98.007,29.605 									"/>
								</g>
								<g>
									<polygon fill="#80D6CE" points="84.955,58.703 86.549,58.302 84.614,57.347 									"/>
									<polygon fill="#80D6CE" points="76.471,41.172 77.747,40.851 76.921,40.268 									"/>
									<polygon fill="#80D6CE" points="90.189,39.077 91.783,38.675 90.649,38.212 									"/>
									<polygon fill="#80D6CE" points="99.468,66.241 100.755,65.069 99.579,64.405 									"/>
									<polygon fill="#80D6CE" points="86.86,69.865 87.935,68.295 87.016,67.565 									"/>
								</g>
							</g>
							<g>
								<g>
									<polygon fill="#80D6CE" points="99.619,49.649 99.425,48.348 98.763,49.111 									"/>
									<polygon fill="#80D6CE" points="98.887,35.796 98.645,34.169 98.071,35.252 									"/>
								</g>
							</g>
						</g>
					</g>
				</g>
				<g clip-path="url(#SVGID_18_)">
					<g>
						<g>
						</g>
						<g>
						</g>
					</g>
					<g>
					</g>
				</g>
			</g>
		</g>
	</g>
</g>
</svg>
