<?xml version="1.0" encoding="utf-8"?>
<!-- Generator: Adobe Illustrator 16.0.0, SVG Export Plug-In . SVG Version: 6.00 Build 0)  -->
<!DOCTYPE svg PUBLIC "-//W3C//DTD SVG 1.1//EN" "http://www.w3.org/Graphics/SVG/1.1/DTD/svg11.dtd">
<svg version="1.1" id="Capa_1" xmlns="http://www.w3.org/2000/svg" xmlns:xlink="http://www.w3.org/1999/xlink" x="0px" y="0px"
	 width="153.405px" height="264.083px" viewBox="0 0 153.405 264.083" enable-background="new 0 0 153.405 264.083"
	 xml:space="preserve">
<path d="M76.703,8.804c-40.041,0-72.5,32.459-72.5,72.5s32.459,72.5,72.5,72.5s72.5-32.46,72.5-72.5S116.743,8.804,76.703,8.804z
	 M76.203,121.305l-32.5-18.833V65.804l32.5,17.833V121.305z M110.37,102.471l-32.167,18.833l-0.136-37.804l32.303-17.697V102.471z
	 M77.245,82.096L43.703,63.804l33-20l33.667,19.833L77.245,82.096z"/>
<g>
	<g>
		<path d="M27.491,210.531H7.896v-7.619h4.899v-22.857H7.896v-7.621h19.594v7.621h-4.898v22.857h4.898V210.531z"/>
		<path d="M32.389,172.434h22.859c3.811,0,6.577,0.861,8.301,2.584c1.723,1.725,2.584,4.492,2.584,8.301v4.9
			c0,3.012-0.5,5.352-1.497,7.02c-0.998,1.668-2.585,2.775-4.762,3.32l6.803,11.973H56.065l-6.259-11.428h-7.621v11.428h-9.796
			V172.434z M56.337,183.318c0-2.178-1.089-3.264-3.267-3.264H42.186v11.43h10.885c2.177,0,3.267-1.092,3.267-3.266V183.318z"/>
		<path d="M105.866,200.191c0,3.809-0.863,6.578-2.586,8.301c-1.725,1.723-4.49,2.584-8.301,2.584H81.372
			c-3.808,0-6.576-0.861-8.299-2.584s-2.585-4.492-2.585-8.301v-17.416c0-3.812,0.862-6.578,2.585-8.301
			c1.724-1.725,4.491-2.586,8.299-2.586h13.607c3.811,0,6.576,0.861,8.301,2.586c1.723,1.723,2.586,4.488,2.586,8.301V200.191z
			 M96.069,182.775c0-2.178-1.09-3.266-3.268-3.266H83.55c-2.178,0-3.264,1.088-3.264,3.266v17.416c0,2.178,1.086,3.266,3.264,3.266
			h9.252c2.178,0,3.268-1.088,3.268-3.266V182.775z"/>
		<path d="M144.509,210.531h-10.342l-13.062-22.859v22.859h-9.799v-38.098h10.344l13.062,22.859v-22.859h9.797V210.531z"/>
	</g>
	<g>
		<path d="M7.896,220.008h20.865c3.478,0,6.003,0.787,7.575,2.359c1.573,1.572,2.361,4.098,2.361,7.576v4.471
			c0,2.748-0.457,4.885-1.367,6.408c-0.911,1.523-2.359,2.535-4.347,3.031l6.209,10.928h-9.687l-5.713-10.432h-6.956v10.432H7.896
			V220.008z M29.755,229.943c0-1.986-0.994-2.98-2.982-2.98h-9.936v10.432h9.936c1.988,0,2.982-0.994,2.982-2.98V229.943z"/>
		<path d="M66.018,220.008h8.942v25.336c0,3.477-0.788,6.004-2.359,7.572c-1.575,1.578-4.098,2.363-7.576,2.363H53.6
			c-3.478,0-6.003-0.785-7.576-2.363c-1.573-1.568-2.36-4.096-2.36-7.572v-25.336h8.942v25.336c0,1.986,0.994,2.98,2.98,2.98h7.453
			c1.986,0,2.979-0.994,2.979-2.98V220.008z"/>
		<path d="M79.879,247.578c9.075,0.498,15.217,0.746,18.428,0.746c0.762,0,1.367-0.225,1.814-0.67
			c0.447-0.449,0.67-1.053,0.67-1.816v-4.469H89.368c-3.48,0-6.004-0.787-7.578-2.359c-1.572-1.572-2.359-4.098-2.359-7.576v-1.49
			c0-3.479,0.787-6.004,2.359-7.576c1.574-1.572,4.098-2.359,7.578-2.359h17.436v6.955H91.354c-1.986,0-2.982,0.994-2.982,2.98
			v0.994c0,1.986,0.996,2.98,2.982,2.98h8.941c3.246,0,5.631,0.762,7.154,2.283c1.521,1.525,2.283,3.91,2.283,7.156v2.48
			c0,3.25-0.762,5.633-2.283,7.156c-1.523,1.523-3.908,2.285-7.154,2.285c-1.689,0-3.477-0.033-5.365-0.102l-4.57-0.197
			c-3.377-0.164-6.871-0.396-10.481-0.695V247.578z"/>
		<path d="M144.509,254.781h-8.943v-14.156h-12.418v14.156h-8.941v-34.773h8.941v13.66h12.418v-13.66h8.943V254.781z"/>
	</g>
</g>
</svg>
